{"glyphs":{"0":{"ha":1421,"x_min":-26,"x_max":1350,"o":"m 838 407 q 818 501 843 436 q 782 576 797 558 q 653 636 733 636 q 539 619 614 636 q 418 488 472 596 q 404 408 404 460 q 514 229 404 264 q 625 211 544 219 q 760 277 696 217 q 838 407 825 338 m 1242 576 l 1250 433 q 1253 368 1253 386 q 1215 111 1253 224 q 1211 68 1215 94 q 783 -253 1125 -150 q 638 -272 719 -272 q 449 -244 540 -272 q 244 -160 315 -204 q 64 57 138 -93 q 1 306 -1 190 q 74 746 6 478 q 121 824 79 769 q 179 904 169 888 q 492 1117 286 1093 q 692 1113 514 1119 q 886 1058 807 1108 q 904 1054 893 1056 l 928 1049 q 1118 881 1018 1028 l 1131 868 q 1144 850 1140 858 q 1215 644 1183 775 q 1242 576 1226 625 m 1338 515 q 1310 585 1325 557 q 1242 789 1276 719 q 1211 828 1239 794 q 1156 896 1183 861 q 1094 958 1119 940 q 935 1075 994 1060 l 918 1079 q 894 1086 907 1082 q 710 1140 821 1129 q 514 1144 667 1144 l 489 1144 q 154 918 267 1117 q 97 838 136 886 l 99 839 q 47 751 56 786 l 47 753 q -26 306 -26 461 l -26 299 q 36 49 -26 185 q 190 -156 101 -94 q 408 -307 261 -249 q 510 -340 438 -318 q 707 -369 606 -369 q 861 -349 792 -369 q 1308 -8 1217 -242 q 1313 36 1313 14 q 1350 299 1350 153 q 1339 508 1350 386 l 1338 515 m 625 239 l 625 239 q 522 256 550 247 q 510 258 518 256 q 501 339 501 288 q 513 406 501 385 q 614 522 563 503 q 688 536 663 533 l 694 536 q 722 539 711 539 q 776 529 747 539 q 792 492 781 519 q 810 417 810 443 l 810 413 q 742 299 799 353 q 625 239 685 244 m 618 524 l 614 522 q 618 524 617 522 z "},"1":{"ha":1057,"x_min":-24,"x_max":978,"o":"m 876 439 q 874 324 876 343 l 832 28 q 696 -224 808 -137 q 539 -276 626 -276 q 440 -264 496 -276 q 396 -231 431 -261 q 385 -221 393 -228 q 329 72 329 -104 q 338 254 329 147 q 347 422 347 379 q 310 531 347 507 q 293 533 304 533 q 268 531 283 533 q 188 496 256 524 q 63 481 119 475 q 25 524 56 481 q 4 599 4 553 q 68 790 4 665 q 131 907 113 878 q 211 1011 168 968 q 268 1044 229 1029 l 307 1060 q 325 1068 321 1065 q 381 1099 349 1083 q 483 1117 400 1107 q 803 915 643 1135 q 826 853 813 901 l 842 799 q 850 774 847 779 q 881 560 881 690 q 878 508 881 543 q 876 457 876 474 l 876 439 m 974 369 l 974 386 q 975 400 974 390 l 975 431 q 976 460 975 440 q 978 490 978 481 q 946 714 978 624 q 908 836 944 717 q 894 863 901 853 q 776 993 836 942 q 508 1146 644 1146 l 493 1146 q 479 1144 486 1146 l 481 1144 q 368 1124 407 1136 q 310 1092 353 1117 q 286 1082 306 1090 l 258 1071 q 103 914 176 1038 q 43 803 82 878 q -24 599 -24 672 q 3 511 -24 564 q 63 451 32 451 q 71 438 64 450 q 143 382 106 382 l 158 382 q 263 399 210 382 l 289 411 q 313 421 297 414 l 311 419 q 319 422 314 421 q 310 256 319 381 q 301 72 301 149 q 361 -236 301 -108 l 379 -254 q 422 -287 400 -275 q 431 -306 428 -299 l 449 -324 q 504 -361 476 -351 q 608 -374 564 -374 q 782 -315 707 -374 q 929 -47 906 -219 l 971 250 q 974 369 974 269 z "},"2":{"ha":1113,"x_min":-26,"x_max":1036,"o":"m 932 732 q 894 553 936 679 q 879 504 890 540 q 821 411 860 444 q 772 385 810 401 l 718 361 l 585 290 q 489 193 510 250 q 500 164 485 181 q 619 199 560 182 q 740 219 694 219 q 783 215 763 219 q 835 213 799 217 q 939 63 939 168 q 901 -71 939 0 q 881 -117 894 -87 q 785 -203 851 -158 q 671 -257 719 -247 q 518 -272 593 -272 q 475 -267 513 -272 q 371 -254 440 -267 q 308 -240 357 -251 q 85 -96 179 -231 q 1 157 1 22 q 124 393 1 297 q 376 500 224 472 q 421 507 392 501 q 490 539 479 518 q 506 603 506 567 q 475 664 506 651 q 407 664 438 679 q 244 588 322 619 q 207 583 229 583 q 61 624 106 583 q 17 763 17 665 q 76 946 17 825 q 147 1024 94 983 q 221 1072 172 1040 q 229 1072 225 1074 q 321 1099 239 1085 q 425 1115 374 1107 q 494 1107 447 1111 q 803 983 636 1113 q 856 915 811 976 q 932 732 925 818 m 1029 663 q 947 863 1029 749 q 888 938 899 929 l 889 936 q 857 960 878 944 q 818 1007 826 1001 l 819 1006 q 507 1135 657 1135 l 497 1135 q 426 1144 494 1135 q 375 1136 410 1143 l 376 1136 l 325 1128 q 271 1119 297 1124 q 219 1101 236 1113 q 213 1100 217 1100 l 210 1100 q 178 1076 199 1089 l 171 1072 q 160 1065 169 1071 q 107 1025 128 1046 l 107 1026 q 25 903 61 983 q -7 819 10 869 q -11 763 -11 794 q 76 583 -11 621 q 175 503 99 531 q 203 494 193 496 l 231 489 q 54 364 118 446 q -26 157 -26 261 q 63 -112 -26 17 q 150 -208 104 -174 q 375 -337 242 -326 q 433 -350 393 -339 q 492 -360 469 -360 l 497 -360 q 540 -364 508 -360 l 539 -364 q 588 -369 569 -369 q 744 -354 663 -369 q 874 -293 804 -343 l 872 -294 q 974 -201 946 -247 q 1026 -76 990 -174 q 1036 -7 1036 -40 q 944 153 1036 99 q 840 240 915 208 q 794 243 815 243 l 789 243 q 763 246 775 246 l 797 265 q 850 289 799 267 l 849 288 q 908 321 892 306 q 975 425 953 358 q 1029 644 1029 582 l 1029 663 m 467 553 q 422 536 463 544 q 468 558 438 543 q 465 551 468 556 l 467 553 z "},"3":{"ha":1090,"x_min":-25,"x_max":1021,"o":"m 857 304 q 924 131 924 222 q 815 -87 924 11 q 710 -157 793 -108 q 579 -224 663 -185 q 300 -272 422 -272 q 72 -172 169 -272 q 3 -68 13 -111 q 29 21 21 -1 q 78 99 43 54 q 185 157 97 122 q 315 190 199 163 q 446 256 382 207 q 440 289 443 279 q 408 324 429 314 q 360 335 388 326 l 289 354 q 253 443 253 369 q 257 479 253 464 q 422 596 275 546 q 449 633 446 619 q 413 686 451 674 q 340 693 388 694 q 267 692 292 692 l 217 692 q 193 699 211 692 l 171 706 q 75 789 151 710 q 51 853 56 808 q 69 951 47 893 q 119 1038 90 1010 q 231 1085 147 1067 q 257 1100 242 1093 q 326 1115 301 1111 q 342 1114 317 1115 q 418 1113 372 1114 q 560 1108 457 1113 q 788 976 690 1100 q 843 879 829 924 q 854 768 854 840 q 769 532 854 621 q 700 464 744 513 q 696 447 696 456 q 731 401 696 431 q 857 304 775 371 m 947 253 q 897 294 936 267 q 851 347 878 328 q 799 386 838 357 q 856 440 833 424 q 951 699 951 540 q 946 788 951 750 q 879 925 936 853 l 879 924 q 804 1000 843 969 q 563 1136 707 1119 q 418 1140 550 1138 q 410 1142 418 1140 q 394 1142 401 1142 l 372 1142 q 351 1115 351 1142 l 326 1090 l 321 1143 q 247 1125 274 1132 q 221 1111 228 1117 q 101 1060 132 1090 q 40 950 63 1021 q 24 861 24 897 l 24 850 q 44 785 29 810 q 89 736 53 771 q 115 711 103 722 q 125 700 121 703 q 235 608 208 614 q 275 597 231 608 l 286 594 l 344 594 q 225 443 225 538 q 239 376 225 410 q 282 328 256 338 q 301 322 288 325 q 351 258 315 271 q 369 253 354 258 l 386 247 q 285 208 339 218 q 175 183 206 194 q 56 115 83 150 q -14 -24 6 53 l -25 -68 q 53 -192 -11 -126 q 147 -286 135 -275 q 369 -369 243 -369 q 524 -353 436 -369 q 811 -240 676 -324 q 903 -178 849 -218 q 1021 61 1021 -71 q 947 253 1021 163 z "},"4":{"ha":1492,"x_min":-28,"x_max":1451,"o":"m 1346 347 q 1228 260 1321 289 q 1107 193 1128 228 q 1104 175 1107 189 q 1093 107 1093 142 q 1105 10 1093 74 q 1117 -87 1117 -54 q 981 -251 1117 -219 q 886 -264 978 -253 q 844 -267 864 -267 q 713 -222 754 -267 q 653 -97 682 -190 q 622 86 643 -36 q 608 160 617 121 q 544 188 592 188 q 506 185 538 188 q 469 184 481 182 q 444 185 458 186 l 421 182 l 378 182 q 119 233 181 182 q 43 324 94 258 l 31 365 q 0 517 0 428 q 6 599 0 557 q 35 644 18 613 q 103 879 40 774 q 197 986 151 961 q 363 1031 283 1032 q 536 876 536 1026 q 529 817 536 856 q 531 786 531 800 q 526 744 531 776 q 490 571 490 618 q 493 550 490 557 q 579 506 510 506 q 635 621 642 506 q 629 699 629 717 q 625 797 629 729 q 622 896 621 865 q 631 992 625 947 q 644 1022 633 1011 q 753 1094 704 1083 q 826 1115 785 1106 q 911 1097 861 1124 q 976 1038 961 1069 q 1022 856 1007 972 q 1042 667 1025 839 q 1053 582 1042 638 q 1129 538 1075 538 l 1174 538 q 1218 539 1196 538 q 1332 476 1272 533 q 1354 401 1354 456 q 1346 347 1354 367 m 1442 268 q 1451 332 1451 289 q 1432 411 1451 383 q 1371 467 1417 435 q 1286 546 1349 511 q 1219 567 1253 564 q 1181 565 1200 565 l 1142 565 q 1139 583 1139 575 l 1139 600 l 1128 717 q 1118 797 1125 738 q 1071 981 1104 914 l 1071 979 q 1003 1044 1054 1014 l 1003 1049 q 1001 1050 1001 1049 l 1001 1049 q 924 1121 982 1089 q 842 1144 881 1144 l 831 1144 q 797 1136 839 1144 q 625 1042 700 1117 q 599 956 603 1019 l 599 957 q 596 925 596 943 q 544 965 574 951 q 542 972 543 968 q 363 1058 496 1058 l 356 1058 q 183 1011 274 1058 q 79 896 132 983 q 19 749 31 814 q 7 651 8 685 q -21 610 -1 636 q -28 517 -28 568 q 6 353 -28 419 l 4 357 q 18 310 8 340 q 101 213 69 244 q 119 199 108 204 q 171 143 156 156 q 447 85 242 85 l 499 85 q 519 88 513 88 l 532 88 q 553 86 539 86 l 564 86 q 588 89 576 86 l 597 89 q 625 -101 604 25 q 669 -211 638 -139 l 668 -211 q 735 -274 690 -253 q 737 -277 736 -276 q 739 -281 738 -278 l 738 -281 q 914 -364 783 -364 q 1025 -353 925 -364 q 1057 -347 1050 -350 q 1214 -157 1214 -311 q 1201 -54 1214 -119 l 1201 -56 q 1190 38 1190 8 q 1201 103 1190 69 l 1201 108 q 1203 114 1203 113 q 1306 164 1228 140 q 1440 267 1408 196 l 1442 268 m 599 533 l 593 533 q 596 547 593 538 l 596 546 q 600 572 597 554 l 600 553 q 599 533 599 540 z "},"5":{"ha":1138,"x_min":-28,"x_max":1069,"o":"m 946 40 q 858 -89 933 11 q 822 -139 851 -103 q 617 -246 739 -211 q 385 -271 504 -278 q 319 -254 367 -265 q 108 -190 167 -239 l 64 -136 q 13 -37 22 -85 q 1 4 7 -24 q 42 136 -4 60 q 164 224 94 224 q 225 218 188 224 q 274 200 251 217 q 438 136 357 136 q 521 201 521 136 q 499 273 521 240 q 440 312 476 306 q 335 315 403 318 q 221 315 251 313 q 126 367 181 319 q 53 456 71 414 q 25 525 39 488 q 11 622 11 585 q 10 703 10 632 l 10 861 q 17 922 8 867 q 19 960 17 935 q 99 1053 46 1025 q 221 1085 136 1072 q 494 1115 436 1115 l 514 1115 q 625 1107 514 1115 q 717 1100 649 1106 q 901 885 901 1083 q 893 782 901 842 q 856 724 889 751 q 790 693 822 696 q 599 688 738 689 q 539 682 556 688 q 476 642 500 669 q 475 633 475 639 q 497 585 475 596 q 575 574 529 572 q 656 574 644 575 q 786 536 721 564 q 857 486 817 524 q 911 419 897 449 q 972 179 972 288 q 946 40 972 104 m 1040 -40 q 1069 110 1069 31 q 1006 361 1069 224 q 917 461 986 401 q 824 547 863 522 q 711 590 786 571 l 861 596 q 943 632 903 597 q 990 708 983 667 q 999 815 999 760 q 900 1025 999 972 l 888 1046 q 722 1128 836 1114 q 618 1136 696 1129 q 515 1143 547 1143 l 494 1143 q 217 1113 443 1143 q 79 1075 125 1100 q -8 965 21 1042 q -10 957 -8 963 l -10 950 q -11 936 -11 943 l -11 926 l -18 865 l -18 706 q -19 686 -19 697 l -19 665 q -3 518 -19 597 q 61 394 26 435 q 117 339 103 346 l 121 335 q 215 247 156 288 q 164 251 183 251 q 18 150 81 251 q -28 17 -28 75 q -26 3 -28 13 q -25 -10 -25 -6 q -14 -46 -22 -22 q 42 -153 -4 -96 l 58 -174 q 89 -210 67 -185 l 103 -221 q 118 -231 110 -226 l 128 -243 q 158 -279 138 -256 q 279 -336 213 -322 q 386 -351 319 -344 l 382 -350 q 450 -368 404 -356 q 471 -369 461 -369 l 494 -369 q 915 -224 740 -369 q 953 -171 943 -190 l 950 -175 q 1042 -39 1031 -69 l 1040 -40 m 493 201 q 438 164 493 164 q 297 217 371 164 q 314 215 304 215 l 336 215 q 370 217 347 215 q 404 218 393 218 l 438 218 q 492 215 469 218 q 493 208 492 213 l 493 201 z "},"6":{"ha":1119,"x_min":-25,"x_max":1056,"o":"m 610 193 q 563 295 604 244 q 472 347 521 346 q 324 261 383 349 q 365 163 322 213 q 454 113 407 113 q 472 115 461 113 q 610 193 572 128 m 918 436 q 958 214 958 335 q 915 3 958 89 q 774 -161 872 -82 q 596 -247 667 -246 q 472 -268 539 -268 q 310 -247 407 -268 q 243 -211 279 -228 q 3 246 0 -101 q 15 365 3 288 q 136 764 56 624 q 176 854 149 794 q 324 1014 219 917 q 390 1060 336 1024 q 404 1081 394 1069 q 467 1103 426 1096 q 490 1110 472 1103 q 519 1115 507 1117 q 718 996 682 1101 q 719 944 725 975 q 699 885 713 908 q 567 764 650 803 q 518 717 540 751 q 496 653 496 682 q 543 600 496 615 q 636 590 567 592 q 724 578 700 589 q 779 550 753 564 q 829 514 813 532 q 867 492 833 511 q 918 436 888 475 m 1010 383 q 953 444 976 425 l 942 450 l 940 453 q 883 514 907 494 q 850 532 864 525 q 846 535 849 532 l 850 532 q 735 603 818 565 q 642 617 704 617 l 621 617 q 601 618 611 617 q 649 669 617 650 l 647 669 q 792 801 739 713 l 792 800 q 819 885 814 840 l 819 900 q 814 936 819 922 l 814 935 q 731 1035 790 1001 q 522 1143 678 1129 l 517 1143 q 471 1133 500 1143 l 463 1131 q 382 1099 415 1124 q 379 1093 379 1094 l 378 1092 q 371 1081 372 1083 q 304 1035 317 1044 q 150 863 204 939 q 110 774 135 832 l 113 778 q -12 369 28 633 q -25 246 -25 288 l -25 235 q 149 -187 -25 -53 q 301 -306 203 -261 l 300 -306 q 371 -344 335 -322 q 542 -365 468 -365 q 672 -344 611 -365 q 864 -250 753 -339 q 1007 -87 969 -165 q 1056 144 1056 14 q 1014 376 1056 272 l 1010 383 m 472 143 q 454 140 461 140 q 432 144 444 140 q 421 182 421 164 q 538 250 468 250 l 542 250 q 561 246 553 250 q 581 197 575 225 q 472 143 547 151 z "},"7":{"ha":1058,"x_min":-26,"x_max":992,"o":"m 893 803 q 881 565 899 703 q 853 439 872 507 q 796 304 833 394 q 783 258 792 288 l 733 131 q 676 7 701 49 q 569 -136 633 -65 q 435 -251 494 -219 q 365 -268 403 -268 q 308 -258 333 -268 q 132 -108 189 -212 q 125 -72 125 -96 q 154 79 125 -22 q 218 194 186 135 l 306 357 q 308 375 306 361 l 375 488 q 417 617 417 558 q 407 651 417 640 q 353 681 390 676 l 321 681 q 290 682 306 681 q 243 679 271 679 q 124 685 167 679 q 53 713 92 689 q 7 801 31 726 q 1 825 4 806 q 29 946 0 881 q 100 1049 58 1011 q 229 1093 136 1081 q 308 1115 258 1104 q 444 1104 381 1115 q 607 1076 528 1090 q 649 1056 619 1068 q 799 974 721 1038 q 860 894 831 947 q 893 803 890 842 m 885 926 l 886 925 q 864 943 879 931 q 815 996 840 976 l 817 994 q 658 1081 738 1060 q 618 1103 644 1086 l 449 1132 q 303 1143 385 1143 q 221 1119 265 1136 q 38 1019 90 1100 q -26 832 -26 921 l -26 822 q -19 793 -25 811 l -19 794 q 38 689 1 713 q 67 672 51 678 q 107 619 85 632 q 189 588 153 592 q 217 585 200 585 q 231 583 224 583 l 276 583 q 303 582 311 582 q 360 585 338 582 q 372 583 367 583 l 385 583 q 311 433 374 532 l 301 418 q 281 383 290 400 q 278 364 278 375 q 263 338 272 356 l 263 339 q 129 90 219 256 q 110 14 111 29 q 99 -76 99 -29 q 108 -124 99 -101 q 203 -233 147 -193 q 368 -354 258 -311 q 435 -365 396 -365 q 517 -346 481 -365 q 679 -200 593 -306 q 801 -17 756 -108 q 854 115 801 -17 l 876 171 q 892 226 881 190 q 940 340 911 271 q 947 357 942 346 q 992 675 992 519 l 992 704 q 960 828 992 761 q 885 926 929 894 z "},"8":{"ha":1138,"x_min":-28,"x_max":1060,"o":"m 621 258 q 472 336 579 347 q 389 297 425 331 q 353 217 353 263 q 386 132 353 156 q 513 99 444 92 q 596 131 560 99 q 632 210 632 163 q 621 258 632 235 m 633 706 q 585 760 626 726 q 522 800 549 789 q 492 807 513 806 q 486 814 489 808 q 481 819 483 819 q 375 686 375 778 q 378 669 375 678 q 406 611 388 625 q 503 569 458 569 q 526 574 515 569 q 603 606 571 571 q 635 686 635 642 q 633 706 635 699 m 963 681 q 850 425 963 514 q 825 371 815 390 q 881 300 838 346 q 935 222 924 254 q 951 78 958 153 q 733 -197 933 -125 q 675 -231 713 -212 q 628 -240 663 -233 l 540 -256 q 438 -268 493 -264 q 413 -269 419 -269 l 386 -269 q 203 -239 296 -269 q 48 -146 96 -204 q 0 6 0 -87 q 61 232 0 157 q 65 249 67 246 q 122 307 83 271 l 161 335 q 175 346 171 343 q 211 406 211 378 q 210 418 211 414 q 88 497 139 463 q 65 535 79 506 q 40 606 44 578 l 40 619 q 39 656 40 624 q 103 911 33 785 q 315 1076 181 1053 q 414 1107 353 1092 q 464 1115 417 1108 q 468 1114 457 1114 l 508 1114 q 523 1108 513 1114 q 540 1103 533 1103 q 613 1090 567 1103 q 690 1069 638 1083 q 828 993 742 1056 q 870 947 844 981 q 901 894 896 913 q 935 822 915 874 q 944 786 936 819 q 963 681 963 717 m 1053 675 q 1046 704 1051 683 l 1046 703 q 1029 767 1040 724 q 994 839 1018 792 q 914 946 971 900 q 896 958 910 949 q 892 964 893 961 q 844 1015 864 1001 q 693 1097 746 1086 l 694 1096 l 686 1099 q 675 1103 682 1100 l 622 1115 q 546 1131 596 1122 q 533 1135 538 1131 q 508 1142 517 1142 q 489 1115 489 1142 l 464 1090 l 460 1143 q 307 1103 413 1136 q 78 925 160 1078 l 79 925 q 11 676 11 804 l 11 654 q 13 633 11 646 l 13 601 q 40 522 17 572 l 40 524 q 72 474 57 489 q 93 460 83 467 l 113 446 q 172 383 132 408 q 106 329 164 371 q 38 258 83 314 l 38 247 q 36 244 36 246 q -28 6 -28 163 q 78 -208 -28 -135 q 247 -329 128 -286 q 456 -367 349 -367 l 483 -367 q 510 -365 489 -367 q 706 -336 593 -360 l 758 -325 l 785 -311 q 813 -293 794 -306 q 1029 -94 982 -231 q 1050 22 1050 -35 l 1050 42 q 969 254 1050 163 l 938 290 q 921 310 932 296 q 939 336 924 321 l 938 333 q 1060 611 1060 433 q 1053 675 1060 643 m 604 210 q 576 151 604 175 q 513 126 547 126 l 503 126 q 494 125 497 125 q 450 131 468 125 l 450 147 q 486 213 450 186 q 563 240 522 240 q 600 235 583 240 q 604 210 604 222 m 531 601 l 519 601 q 503 597 508 597 q 476 601 489 597 q 472 617 472 610 q 524 707 472 679 l 524 706 l 533 711 q 542 715 538 713 q 560 710 550 710 q 579 706 576 707 q 607 690 588 703 l 607 686 q 584 628 607 656 q 531 601 561 601 m 531 732 q 533 726 531 729 q 531 732 531 729 m 921 304 z "},"9":{"ha":1279,"x_min":-25,"x_max":1210,"o":"m 735 717 q 658 849 735 807 q 574 882 597 882 q 558 879 567 882 q 531 861 549 872 q 503 858 522 861 q 424 789 457 839 q 390 690 390 739 q 408 640 390 660 q 574 568 467 578 q 665 596 618 568 q 735 717 735 638 m 1113 674 l 1107 542 q 1056 211 1103 431 q 997 78 1054 204 q 929 -47 960 -4 q 835 -157 903 -83 q 778 -193 803 -175 q 589 -268 685 -258 q 536 -272 571 -268 q 392 -211 450 -262 q 332 -71 326 -154 q 371 26 335 -14 q 449 90 394 53 q 525 147 504 126 q 565 235 560 182 q 560 299 569 269 q 517 339 547 336 q 361 333 463 343 q 100 404 185 317 q 11 546 33 474 q 3 660 3 572 q 13 749 3 722 q 44 835 24 775 q 101 933 54 861 q 140 972 119 949 q 238 1067 207 1047 q 394 1115 294 1103 q 417 1115 407 1117 l 450 1110 q 485 1107 467 1107 q 507 1107 500 1106 q 600 1117 556 1117 q 721 1104 614 1117 q 782 1083 742 1097 q 1011 922 913 1061 q 1113 674 1094 804 m 1210 608 q 1103 868 1192 743 q 1010 969 1061 926 q 786 1111 913 1086 q 728 1132 776 1113 q 600 1144 624 1144 q 501 1135 547 1144 l 503 1135 q 492 1133 499 1133 q 446 1138 476 1133 q 400 1143 415 1143 l 392 1143 q 171 1049 250 1128 q 118 990 156 1033 q 79 950 89 957 q 18 843 28 871 l 18 844 q -14 756 8 815 l -14 757 q -25 660 -25 729 q -15 538 -25 568 l -15 539 q 32 447 -4 500 l 31 449 q 118 351 83 375 q 213 269 164 293 q 396 235 283 235 l 415 235 q 538 243 421 235 l 538 238 q 504 167 531 196 l 506 167 q 429 110 485 146 q 351 47 374 74 q 304 -71 304 -7 l 304 -85 q 401 -251 304 -175 q 606 -369 472 -356 q 661 -365 640 -365 q 864 -285 772 -356 l 863 -286 l 903 -261 q 925 -246 907 -258 q 1022 -132 993 -174 q 1092 -3 1060 -79 l 1092 -6 q 1153 136 1143 90 q 1185 303 1179 268 q 1204 471 1201 397 l 1210 608 m 699 667 q 649 618 690 640 q 576 596 607 596 q 488 618 526 601 l 488 621 q 515 700 488 657 q 576 761 543 743 q 607 764 560 761 q 642 785 619 771 l 643 785 q 699 763 658 785 q 707 717 707 742 q 699 668 707 693 l 699 667 z "}," ":{"ha":694,"x_min":0,"x_max":0,"o":""},"A":{"ha":1451,"x_min":-26,"x_max":1383,"o":"m 858 329 q 708 422 857 406 q 639 414 707 422 q 556 363 601 410 q 507 278 511 315 q 568 161 499 214 q 667 121 621 121 q 686 122 676 121 q 714 118 700 118 q 824 193 782 118 q 858 329 858 256 m 1282 429 q 1285 361 1282 410 q 1285 279 1288 314 q 1214 67 1276 174 q 1071 -106 1158 -31 q 956 -175 1033 -137 q 829 -225 886 -208 q 571 -269 675 -269 q 86 -47 257 -269 q 7 156 4 60 q 1 193 4 167 q 51 310 15 244 q 101 424 64 347 q 171 503 121 453 q 240 551 204 536 q 493 593 317 585 q 733 628 669 601 q 760 689 756 638 q 756 739 761 711 q 689 785 743 774 q 660 786 676 788 q 549 757 608 782 l 429 707 q 382 701 411 701 q 194 779 247 701 q 168 867 168 817 q 169 882 168 878 q 239 1018 185 956 l 290 1054 q 492 1117 356 1100 q 555 1112 514 1119 q 613 1104 596 1104 q 913 1056 775 1104 l 929 1043 q 1210 783 1115 990 q 1282 429 1282 625 m 1379 360 q 1328 667 1379 524 q 1157 922 1269 831 q 943 1067 1071 1029 l 925 1081 q 613 1132 778 1132 q 555 1138 593 1132 q 497 1144 517 1144 l 489 1144 q 274 1076 343 1131 q 221 1039 244 1053 q 142 888 158 967 l 142 889 q 140 876 140 882 l 140 867 q 229 711 140 757 q 242 690 232 704 q 338 625 269 650 q 375 614 340 624 q 151 522 218 589 q 78 439 97 468 q 25 318 58 400 l 26 324 q -26 194 -8 258 q -21 153 -26 181 l -21 150 q 58 -57 -21 56 q 154 -161 103 -121 q 310 -285 229 -243 q 640 -367 467 -367 q 907 -321 749 -367 l 906 -321 q 1158 -196 1075 -268 q 1367 119 1304 -69 q 1383 247 1383 169 q 1381 307 1383 290 l 1381 350 q 1379 360 1379 357 m 714 146 q 686 150 700 146 q 667 149 681 149 q 608 167 639 149 q 603 194 603 178 l 603 201 q 604 208 604 206 q 648 274 608 233 q 711 317 688 314 q 775 325 764 322 q 831 315 793 322 q 800 207 828 257 q 714 146 767 146 m 729 671 l 724 654 q 542 625 669 633 l 629 663 l 629 661 q 729 689 696 689 l 732 689 q 729 671 729 675 z "},"B":{"ha":1039,"x_min":-25,"x_max":993,"o":"m 554 186 q 528 274 554 229 q 458 325 499 325 q 410 310 440 325 q 396 296 406 304 q 365 289 386 294 q 333 189 333 244 q 438 78 333 75 q 554 186 554 117 m 894 146 q 892 135 894 142 q 889 124 889 128 q 786 -106 889 7 q 575 -250 693 -210 q 432 -274 506 -274 q 126 -162 247 -274 q 32 -26 57 -99 q 3 136 15 22 q 11 231 1 150 q 143 957 53 574 q 188 1046 164 978 q 222 1100 207 1089 q 290 1115 229 1103 q 311 1117 297 1117 q 425 1082 372 1117 q 467 967 461 1058 q 481 892 482 936 q 460 692 481 885 q 451 619 451 614 q 596 518 451 525 q 638 515 607 518 q 858 390 813 496 q 894 146 904 285 m 993 88 l 993 106 q 872 424 993 357 q 600 546 811 532 q 557 550 575 547 l 558 550 q 550 551 553 550 l 578 822 q 564 903 578 864 q 510 1036 556 1007 q 478 1054 504 1040 q 440 1106 464 1090 q 311 1144 382 1144 l 297 1144 q 250 1137 286 1144 q 208 1125 214 1129 q 161 1053 186 1108 q 118 971 142 994 q 18 479 61 733 q -17 233 -1 364 q -25 142 -25 161 l -25 133 q -4 -6 -15 56 q 118 -193 14 -103 q 129 -203 121 -196 l 151 -228 q 501 -371 279 -371 q 654 -346 583 -371 l 653 -346 q 879 -192 781 -301 q 986 54 986 -71 l 988 58 q 989 65 988 63 l 988 60 q 993 88 993 71 m 526 186 q 433 106 526 139 l 431 106 l 431 119 q 451 194 431 158 q 465 197 457 194 l 469 197 q 497 218 475 200 q 519 226 500 219 q 526 186 526 203 z "},"C":{"ha":1217,"x_min":-26,"x_max":1146,"o":"m 957 597 q 799 547 861 547 q 746 550 781 547 q 661 567 725 554 q 571 575 604 578 q 494 536 538 572 q 436 468 450 500 q 436 388 418 428 q 494 307 464 325 q 603 286 533 283 q 728 307 638 288 q 851 321 804 324 q 944 272 897 318 q 1006 183 988 231 q 1018 128 1007 168 q 1026 72 1026 93 q 983 -58 1026 7 q 886 -160 944 -118 q 507 -272 729 -272 q 156 -169 288 -272 q 79 -76 124 -144 q 22 33 35 -8 q 1 165 1 100 l 1 276 q 15 369 1 314 q 35 464 21 394 q 67 665 42 517 q 175 868 88 772 q 206 921 186 890 q 338 1026 271 983 q 692 1117 489 1124 q 814 1092 732 1115 l 835 1082 q 864 1068 847 1075 q 1049 765 1049 1000 q 957 597 1049 644 m 1110 568 q 1146 688 1146 619 l 1146 696 q 1013 989 1146 897 q 872 1094 964 1063 l 828 1117 q 692 1144 729 1144 l 658 1144 q 322 1050 463 1144 q 182 936 246 999 q 171 918 178 931 l 172 919 q 153 886 169 914 q 40 672 75 803 q 7 467 24 613 q 1 429 6 456 l -11 376 q -26 276 -26 313 l -26 164 q -4 25 -26 89 q 60 -93 10 -15 q 140 -193 113 -178 l 139 -192 q 164 -210 147 -199 l 194 -247 q 210 -262 203 -257 l 208 -261 q 576 -369 346 -369 q 972 -251 813 -369 l 971 -253 q 1078 -141 1032 -215 q 1124 3 1124 -67 q 1108 96 1124 42 l 1108 94 q 1103 121 1107 96 q 1001 250 1079 186 q 961 294 989 268 q 851 349 904 349 l 840 349 q 722 335 792 349 q 603 314 632 317 l 592 314 q 535 319 556 314 q 524 358 524 342 q 531 386 524 374 q 578 441 539 408 q 642 478 618 474 l 653 478 q 725 469 678 478 l 788 458 q 814 453 801 456 l 819 453 q 849 450 828 450 l 868 450 q 1039 503 939 450 q 1111 568 1082 526 l 1110 568 z "},"D":{"ha":1306,"x_min":-28,"x_max":1232,"o":"m 708 153 q 732 238 732 182 q 703 336 732 297 q 569 404 653 404 q 543 400 553 404 q 453 363 465 381 q 425 276 425 322 q 468 143 425 219 q 576 111 522 111 q 607 114 592 111 q 663 126 628 114 q 708 153 697 139 m 1090 36 q 1003 -100 1078 0 q 974 -137 993 -114 q 501 -274 758 -274 q 438 -271 457 -274 q 235 -222 307 -253 q 39 -58 125 -176 q 1 96 21 -33 q 17 229 -6 140 q 44 340 24 258 q 107 446 68 396 q 204 521 158 511 q 474 550 296 528 q 547 593 485 551 q 565 626 565 603 q 547 696 565 646 q 506 899 506 810 q 676 1117 506 1128 q 865 1043 772 1111 q 1003 892 954 981 q 1079 749 1017 868 q 1135 346 1135 557 q 1090 36 1135 164 m 1186 -42 q 1232 276 1232 92 q 1175 688 1232 492 q 1096 838 1151 739 l 1097 835 q 983 969 1063 897 q 874 1069 933 1029 q 676 1144 764 1144 l 663 1144 q 478 899 478 1144 q 494 768 478 832 l 493 771 q 515 703 496 754 l 515 704 l 519 693 q 524 681 519 692 q 538 626 538 643 q 532 617 538 618 q 469 578 474 579 q 197 549 379 567 q 85 463 142 536 q 21 356 44 410 l 3 288 q -11 235 -1 272 l -10 236 q -28 122 -28 169 l -28 106 q -12 13 -28 76 q 17 -75 3 -56 q 114 -181 64 -143 q 293 -317 201 -276 q 504 -368 368 -350 q 571 -371 525 -371 q 1060 -229 835 -371 l 1079 -206 q 1144 -118 1104 -174 q 1186 -43 1168 -86 l 1186 -42 m 688 171 q 651 151 683 165 l 653 153 q 578 139 608 139 q 533 144 554 139 q 522 207 522 171 q 546 278 522 243 q 626 306 551 286 q 639 307 629 307 q 693 296 671 307 q 704 238 704 269 q 686 169 704 194 l 688 171 z "},"E":{"ha":1410,"x_min":-28,"x_max":1343,"o":"m 675 658 q 617 732 671 707 q 526 771 579 750 q 509 755 521 765 q 492 739 497 744 q 453 665 474 714 q 450 644 450 651 q 483 574 450 606 q 554 542 515 542 q 581 546 568 542 q 671 622 607 565 q 675 658 678 628 m 1246 78 q 1047 -190 1246 -99 q 706 -269 832 -264 q 688 -265 700 -269 q 671 -261 676 -261 l 515 -246 q 376 -211 469 -235 q 296 -169 344 -193 q 7 267 89 -68 q 1 364 6 299 q 39 597 -6 469 q 149 833 63 667 q 479 1068 244 1019 q 665 1107 528 1078 q 746 1117 710 1117 q 850 1094 760 1114 q 1058 939 990 1064 q 1114 676 1114 833 q 1110 600 1114 649 q 1075 514 1107 569 q 926 392 1028 432 q 574 319 860 365 q 551 296 564 317 q 557 276 551 286 q 668 250 608 250 q 822 286 721 250 q 976 322 924 322 q 1122 282 1057 322 q 1246 78 1246 206 m 1225 222 q 1129 308 1182 279 q 1075 333 1117 315 q 1163 419 1124 364 q 1207 528 1201 475 q 1211 607 1211 565 q 1178 824 1211 724 q 1054 997 1136 946 q 856 1122 986 1094 l 857 1121 q 746 1144 757 1144 q 657 1133 688 1144 l 660 1135 l 465 1094 q 283 1022 356 1067 l 285 1022 q 124 846 182 958 q 64 728 78 758 q 13 606 29 654 q -28 390 -28 492 q -24 335 -28 372 q -21 279 -21 297 l -21 265 q 203 -144 47 -21 q 353 -264 264 -219 q 433 -306 375 -275 q 500 -322 450 -310 l 543 -335 q 639 -350 579 -344 l 711 -356 q 736 -358 733 -358 q 749 -362 726 -358 q 775 -367 772 -367 q 1119 -289 908 -361 q 1343 8 1343 -187 q 1225 222 1343 136 m 649 640 l 603 600 q 568 571 589 588 q 554 569 564 569 l 547 569 l 547 578 q 567 625 547 586 q 583 653 575 642 l 600 669 l 643 650 q 647 649 644 649 l 647 644 q 649 640 647 640 m 550 590 l 549 585 q 550 590 549 588 z "},"F":{"ha":1124,"x_min":-28,"x_max":1067,"o":"m 969 819 q 953 692 969 738 q 885 638 943 664 q 838 632 871 629 q 779 646 800 635 q 717 686 757 663 q 640 711 665 715 q 610 654 615 707 q 608 639 608 647 q 650 542 608 563 q 763 517 651 539 q 843 468 819 506 q 863 376 863 438 q 851 317 863 336 q 817 229 847 290 q 749 185 797 210 q 672 154 700 160 q 619 60 619 144 l 619 -111 q 599 -175 608 -143 q 560 -229 583 -211 q 508 -269 560 -261 q 419 -272 492 -272 q 404 -271 408 -272 q 288 -225 360 -258 q 242 -171 258 -208 q 204 -75 204 -87 l 204 136 q 161 201 188 182 q 88 228 139 217 q 0 329 0 246 q 128 507 0 422 q 196 532 151 513 q 232 603 232 561 q 217 675 232 628 q 201 744 203 722 q 189 800 200 763 q 178 858 178 838 q 182 882 178 871 q 239 983 201 933 q 286 1046 253 1008 q 508 1114 367 1114 q 782 1054 649 1114 q 942 919 897 1003 q 957 901 946 917 q 969 819 969 865 m 1067 750 q 1051 844 1067 801 q 1032 868 1039 861 q 949 960 1004 917 q 793 1079 897 1032 q 508 1142 654 1142 q 267 1065 357 1142 q 214 997 246 1042 l 217 1000 q 156 892 174 944 q 150 858 150 881 l 169 767 q 172 744 172 754 q 201 629 181 713 q 204 603 204 618 q 181 554 204 578 q 114 532 154 543 q -28 329 -28 440 q 51 208 -28 240 l 60 192 q 71 176 64 183 q 151 131 97 143 q 176 125 154 129 l 176 -75 q 217 -182 176 -90 q 275 -250 238 -229 q 288 -256 283 -253 q 344 -319 307 -297 q 465 -367 418 -351 q 476 -369 474 -369 l 489 -369 q 583 -347 526 -369 q 647 -318 608 -337 l 646 -321 q 692 -262 676 -299 q 701 -228 700 -229 q 717 -186 701 -221 l 717 -10 q 754 61 717 42 q 838 93 796 76 l 836 93 q 910 144 883 118 q 949 242 921 168 q 960 307 960 272 q 892 451 960 411 q 878 460 888 454 q 874 469 875 465 q 830 517 863 494 q 768 544 797 539 l 706 557 l 706 569 q 708 590 706 576 l 707 589 l 713 614 l 717 614 q 772 592 733 614 l 772 593 l 842 550 q 906 535 867 535 l 921 535 q 967 543 949 535 q 1049 613 1035 575 q 1067 750 1067 663 z "},"G":{"ha":1242,"x_min":-26,"x_max":1176,"o":"m 463 743 q 413 699 428 715 q 379 644 382 667 q 415 554 372 588 q 513 525 453 525 q 554 531 538 525 q 624 617 624 538 q 596 689 624 664 q 522 722 574 708 q 463 743 471 735 m 1079 444 q 1061 296 1079 367 l 1024 150 q 1013 125 1017 139 q 708 -208 953 -99 q 456 -265 582 -265 q 297 -235 364 -265 q 200 -212 264 -232 q 107 -150 153 -187 q 17 11 17 -76 q 28 54 17 35 q 31 74 28 60 q 72 126 44 92 q 122 165 100 160 q 247 185 196 185 q 299 181 279 185 q 476 151 433 151 q 568 168 529 151 q 589 189 585 175 q 562 260 590 224 q 500 301 533 297 q 346 299 408 313 q 289 293 321 293 q 74 417 157 293 q 1 664 1 525 q 42 829 1 761 q 60 872 49 850 l 96 931 q 115 960 107 949 q 189 1040 151 1008 q 233 1060 201 1050 q 288 1078 275 1071 q 367 1103 324 1094 l 438 1115 q 556 1076 475 1096 q 680 1044 654 1053 q 801 997 706 1035 q 968 831 899 947 q 1053 635 1008 763 q 1058 601 1056 621 q 1079 444 1079 456 m 1163 492 q 1150 572 1158 518 q 944 914 1071 810 q 811 1024 878 993 q 596 1100 717 1067 l 599 1100 q 442 1144 543 1110 l 361 1131 q 276 1105 332 1125 q 171 1061 219 1085 q 93 975 125 1021 l 93 976 q 15 839 36 894 l 18 843 q -26 664 -26 769 q 54 399 -26 514 q 133 314 89 349 q 264 213 192 239 l 247 213 q 115 192 190 213 q 50 143 79 182 q 18 101 42 132 l 4 85 q 0 60 0 69 q -11 11 -11 35 q 89 -172 -11 -92 l 89 -171 q 97 -178 92 -172 q 158 -242 118 -208 l 158 -240 q 258 -307 199 -276 q 361 -332 293 -317 q 525 -362 438 -362 q 789 -303 657 -362 q 1108 49 1047 -186 l 1108 47 q 1118 67 1110 56 l 1157 219 q 1176 375 1176 296 q 1161 494 1176 439 l 1163 492 m 550 558 q 513 553 533 553 q 475 557 492 553 l 475 558 q 476 575 475 569 q 501 610 478 586 l 514 622 q 535 640 521 629 q 586 624 554 632 q 596 621 590 624 l 596 617 q 550 558 596 563 m 561 194 l 558 194 q 556 193 557 193 l 557 193 q 476 179 525 179 q 363 196 446 179 q 428 203 385 196 q 493 210 471 210 q 560 204 521 210 l 560 200 q 561 194 561 196 z "},"H":{"ha":1429,"x_min":-26,"x_max":1403,"o":"m 1271 -28 q 1224 -76 1261 -47 q 1167 -110 1188 -106 q 1007 -135 1050 -135 q 918 -96 963 -135 q 865 -28 882 -65 q 822 69 856 -1 l 790 131 q 733 208 774 174 q 647 247 689 247 q 572 161 578 247 q 578 99 569 129 q 601 -82 607 -12 q 493 -236 594 -172 q 369 -271 438 -271 l 356 -271 q 237 -230 294 -271 q 150 -132 179 -189 q 96 36 110 -12 q 64 213 72 126 q 42 411 58 278 q 13 604 29 481 q 1 790 10 653 q 96 1042 -6 932 q 240 1118 167 1118 q 365 1077 303 1118 q 440 978 428 1036 q 469 922 450 964 q 476 824 469 863 q 481 800 476 819 q 494 758 486 769 q 613 701 535 701 q 711 717 646 701 q 835 738 800 738 q 1107 646 1000 738 q 1124 642 1113 643 q 1183 583 1142 628 q 1238 483 1200 556 q 1247 439 1242 468 q 1306 140 1306 261 q 1271 -28 1306 44 m 1365 -110 q 1403 71 1403 -31 q 1344 374 1403 194 l 1342 388 q 1332 426 1340 396 l 1299 490 q 1275 531 1293 499 l 1240 567 q 1208 594 1229 578 q 1206 600 1206 597 q 1135 668 1165 643 l 1128 668 q 1121 669 1124 669 q 835 765 1008 765 q 796 763 808 765 l 704 742 q 613 729 649 729 q 578 733 592 729 l 578 735 q 567 860 567 783 q 536 918 550 896 q 450 1029 521 982 q 378 1100 425 1069 q 240 1146 307 1146 q 75 1060 153 1146 q -26 804 -26 947 l -26 789 q -22 694 -26 750 l -15 601 q 1 468 -10 536 q 32 221 4 449 q 81 -19 50 69 q 101 -78 86 -35 l 117 -122 q 214 -246 142 -196 q 307 -331 247 -294 q 422 -368 367 -368 l 439 -368 q 663 -249 581 -368 q 699 -154 696 -200 l 699 -156 q 700 -142 700 -149 l 700 -126 q 674 36 700 -64 l 674 35 q 668 81 668 57 q 717 150 668 150 q 756 138 735 150 q 764 121 757 133 l 796 60 q 806 36 799 51 l 840 -40 q 926 -137 865 -94 q 1006 -214 956 -182 q 1076 -232 1033 -232 q 1200 -214 1136 -232 q 1274 -193 1225 -210 q 1308 -169 1289 -183 l 1307 -171 q 1365 -108 1350 -142 l 1365 -110 z "},"I":{"ha":718,"x_min":-29,"x_max":644,"o":"m 543 135 q 547 56 547 93 q 521 -93 547 -40 q 388 -249 456 -224 q 318 -271 354 -261 q 156 -253 203 -282 q 65 -131 119 -231 q 40 -39 61 -124 q 24 107 24 28 q 63 382 24 219 q 58 401 64 388 q 53 421 53 415 q 135 508 53 469 q 219 531 182 531 l 236 531 q 404 464 321 531 q 511 318 483 401 q 543 135 531 261 m 508 949 q 361 640 524 707 q 253 642 257 640 q 129 664 185 644 q 114 676 125 668 q -1 857 -1 731 q 1 896 -1 878 q 51 1008 6 924 q 129 1104 93 1085 q 244 1119 158 1119 q 457 1046 388 1119 q 508 949 506 994 m 607 257 q 556 347 597 286 q 489 415 510 415 q 488 417 489 415 q 318 544 414 508 l 321 544 q 360 543 332 543 l 438 543 q 607 836 607 611 l 607 858 q 507 1029 607 958 q 478 1065 500 1039 q 244 1147 404 1147 q 114 1128 150 1147 q 26 1021 74 1106 q -25 906 1 976 q -29 857 -29 882 q 69 668 -29 731 q 168 583 103 614 l 171 581 q 189 568 172 579 q 222 558 190 567 l 211 558 q 200 557 204 557 q 42 471 83 535 q 25 421 25 446 q 32 393 25 401 l 31 397 q 35 386 35 389 l 35 383 q -4 107 -4 228 q 40 -144 -4 3 q 150 -282 99 -257 q 225 -354 183 -335 q 329 -371 263 -371 q 390 -368 360 -371 l 424 -358 q 463 -347 433 -356 q 615 -175 540 -322 q 644 -14 644 -118 q 640 68 644 21 q 607 257 629 192 z "},"J":{"ha":1111,"x_min":-28,"x_max":1039,"o":"m 942 228 q 924 81 942 182 q 886 -29 914 26 q 842 -118 876 -56 q 596 -260 768 -208 q 464 -268 581 -264 q 332 -250 374 -271 q 147 -185 226 -228 q 17 -49 40 -128 q 1 124 13 -35 q 8 135 4 128 q 51 231 15 185 q 133 286 86 276 q 156 285 143 285 l 186 285 q 294 260 222 285 q 401 235 365 235 q 490 378 494 235 q 490 449 489 431 q 476 538 493 483 q 451 621 453 614 q 526 671 474 667 q 664 665 614 678 q 783 599 722 650 q 888 465 860 535 q 921 401 901 442 q 942 228 942 332 m 774 840 q 728 776 767 811 q 658 731 689 740 q 579 724 646 725 q 543 718 564 718 q 397 796 460 718 q 338 954 338 868 q 515 1117 338 1099 q 665 1070 585 1124 q 768 950 746 1017 q 774 840 788 893 m 1039 158 q 1024 314 1039 238 q 1015 344 1019 336 q 983 406 1006 365 q 871 550 956 479 q 869 551 869 550 q 801 619 851 572 q 765 647 782 633 q 815 686 792 663 l 814 686 q 876 815 876 743 q 767 1010 876 926 q 678 1093 733 1057 q 529 1144 600 1144 l 513 1144 q 310 954 310 1122 q 378 775 310 860 q 432 725 401 744 q 469 681 436 717 q 422 625 440 663 q 463 457 463 504 l 463 449 q 461 435 461 442 l 461 400 q 463 375 461 389 q 458 311 463 336 l 458 313 q 401 263 447 263 q 306 286 379 263 l 307 286 q 186 313 233 313 l 153 313 q 131 314 140 313 q 33 251 75 301 q -18 143 -10 201 q -26 122 -28 133 l -17 -4 q -11 -56 -14 -49 q 83 -178 13 -128 q 393 -346 172 -311 q 517 -365 429 -365 l 533 -365 q 672 -356 640 -365 q 931 -210 857 -300 q 1021 7 1007 -82 l 1021 6 q 1039 158 1039 99 z "},"K":{"ha":1283,"x_min":-26,"x_max":1239,"o":"m 1094 -76 q 1078 -90 1094 -76 q 1040 -117 1063 -104 q 926 -139 986 -147 q 747 -53 843 -117 q 589 53 706 -25 q 540 68 565 68 q 499 57 519 68 q 451 -12 453 33 l 449 -96 q 429 -164 443 -119 q 382 -233 410 -211 q 282 -269 349 -246 q 250 -274 264 -274 q 179 -249 214 -274 q 78 -100 104 -194 q 38 189 38 44 q 39 246 38 219 q 39 306 40 272 q 33 378 38 338 l 24 471 q 18 511 21 497 q 1 894 -1 818 q 28 975 3 940 q 149 1099 61 1024 q 192 1115 167 1114 q 336 1025 300 1118 q 371 836 338 1022 q 458 693 392 719 q 469 692 463 692 q 533 733 497 692 q 579 786 546 747 q 696 899 617 819 q 786 953 732 935 q 875 971 797 957 q 943 981 938 982 q 1044 917 990 967 q 1063 864 1047 914 q 1081 813 1069 849 q 1042 693 1085 763 q 954 579 1019 657 q 869 464 889 501 q 857 406 857 440 q 868 365 857 376 q 1017 253 936 315 q 1106 142 1069 213 q 1142 6 1142 71 q 1129 -42 1142 -25 q 1094 -76 1125 -47 m 1239 -64 q 1206 69 1239 -12 q 1161 146 1189 111 l 1161 144 q 1103 206 1140 175 q 1094 211 1097 208 l 1093 213 q 1092 215 1093 214 l 1092 214 q 1004 297 1072 243 q 974 321 993 304 q 954 333 971 322 l 954 336 q 964 381 954 365 q 1039 485 982 419 q 1135 610 1076 529 l 1135 608 q 1178 733 1178 676 l 1178 747 q 1157 804 1172 767 l 1158 803 l 1157 803 l 1157 804 q 1133 867 1150 831 q 1076 911 1107 890 q 1064 936 1071 926 q 947 1008 1003 992 l 940 1008 q 869 999 915 1008 l 871 999 q 776 979 839 993 q 646 892 717 957 q 535 778 590 835 q 513 751 529 771 l 494 733 q 481 722 488 726 q 468 772 472 747 q 461 813 467 781 l 442 921 q 431 967 435 956 l 432 965 q 353 1056 407 1031 q 200 1143 308 1143 l 192 1143 q 131 1119 157 1143 l 64 1058 q 4 990 32 1029 l 6 992 q -26 894 -26 950 l -26 876 q -10 510 -26 796 q 6 374 -7 454 l 6 375 q 11 272 11 311 l 11 247 q 10 217 10 232 l 10 188 q 51 -108 10 42 q 163 -271 79 -210 l 165 -274 q 319 -371 233 -371 q 388 -357 350 -371 q 453 -332 406 -350 l 465 -328 q 546 -171 521 -283 q 547 -147 546 -162 l 547 -104 q 581 -37 547 -53 q 608 -29 594 -29 q 644 -40 625 -29 l 643 -40 l 801 -146 q 997 -237 900 -211 l 1021 -237 q 1124 -210 1074 -237 l 1124 -211 q 1181 -167 1139 -203 q 1208 -143 1188 -161 q 1239 -64 1239 -117 z "},"L":{"ha":1065,"x_min":-25,"x_max":1021,"o":"m 908 183 q 924 82 924 129 q 897 -54 924 18 q 449 -268 819 -268 q 339 -264 399 -268 q 49 -133 121 -249 q 29 -53 47 -124 q 3 214 0 65 q 24 440 4 300 l 47 613 q 64 800 56 675 l 75 972 q 96 1042 82 979 q 104 1043 100 1043 q 118 1038 113 1043 q 290 1119 185 1119 q 456 1044 389 1119 q 524 840 504 990 q 528 788 528 808 q 507 581 528 753 l 501 535 q 514 414 497 501 q 517 378 513 403 q 542 340 536 347 q 581 319 557 324 q 628 321 607 321 q 692 317 642 321 q 797 283 738 308 q 864 232 821 274 q 908 183 892 206 m 1000 131 q 951 183 978 160 l 953 182 q 883 251 918 217 q 808 308 838 296 q 697 344 749 335 q 611 347 647 347 l 611 349 q 599 454 599 419 l 599 465 q 625 718 625 640 q 621 775 625 750 l 621 774 q 546 993 603 931 q 493 1039 519 1022 q 408 1118 465 1089 q 290 1147 350 1147 q 111 1071 182 1147 q 104 1072 108 1072 q 71 1061 93 1072 q 49 985 54 990 l 29 706 q 28 681 29 696 l 28 676 q -7 446 17 600 q -25 214 -25 321 l -25 196 q 1 -60 -25 64 q 22 -139 7 -85 q 28 -151 25 -150 l 25 -149 q 99 -225 56 -197 q 407 -361 179 -346 q 518 -365 469 -365 q 993 -133 908 -365 q 1021 13 1021 -57 q 1004 121 1021 63 l 1000 131 z "},"M":{"ha":1735,"x_min":-28,"x_max":1658,"o":"m 1561 117 q 1431 -156 1568 -103 q 1304 -182 1376 -176 q 1200 -182 1219 -189 q 1160 -150 1186 -179 q 1131 -106 1135 -121 q 1088 13 1115 -74 q 1035 189 1075 49 q 1010 221 1024 214 q 979 217 992 229 q 938 154 946 182 q 889 17 908 57 q 794 -117 853 -58 q 768 -126 785 -126 q 668 -76 732 -126 q 582 4 618 -37 q 467 113 492 108 q 432 49 432 94 q 451 -44 432 42 q 460 -118 460 -114 q 433 -204 460 -168 q 368 -240 421 -221 q 238 -269 288 -269 q 42 -118 108 -269 q 4 76 4 -32 q 19 200 4 147 q 22 239 24 215 l 19 281 q 21 304 21 292 l 21 331 q 13 476 21 374 q 3 621 7 546 q 0 697 0 672 q 99 989 0 894 q 160 1014 108 999 q 175 1026 164 1018 q 238 1032 194 1036 q 394 932 317 1025 q 531 771 432 888 q 582 704 557 738 q 646 654 617 663 q 710 679 668 647 q 764 729 742 703 q 869 860 818 792 q 919 929 886 883 q 976 986 951 971 q 1079 1065 1003 1013 q 1146 1097 1122 1088 q 1217 1117 1192 1117 q 1414 1015 1335 1119 q 1461 901 1429 996 q 1524 606 1503 778 q 1556 308 1549 388 q 1557 258 1556 299 l 1561 117 m 1658 47 q 1654 190 1658 36 l 1653 242 q 1638 390 1653 258 l 1621 539 q 1557 840 1603 706 q 1506 963 1525 935 q 1439 1026 1481 999 q 1436 1032 1436 1029 q 1221 1144 1347 1144 l 1215 1144 q 1133 1122 1186 1144 q 1071 1093 1128 1119 q 957 1007 981 1032 q 847 875 917 976 l 847 876 l 788 799 q 742 744 764 768 q 688 697 731 728 q 654 681 664 681 l 657 679 l 654 679 q 586 760 618 721 q 510 853 528 832 q 424 938 456 914 q 415 949 421 940 q 240 1060 321 1054 l 242 1060 q 228 1061 235 1061 l 214 1061 q 158 1049 186 1061 l 149 1039 l 151 1040 q 150 1039 150 1040 l 149 1039 q 79 1008 122 1031 q -28 697 -28 906 q -10 403 -28 692 q -7 331 -7 358 l -7 306 q -8 283 -7 294 l -8 269 q -7 254 -8 264 q -6 239 -6 244 l -6 225 q -7 215 -6 222 l -7 207 q -24 76 -24 149 q 119 -260 -24 -162 q 235 -354 167 -326 q 307 -367 265 -367 q 447 -336 364 -367 q 526 -289 513 -312 l 525 -290 q 557 -187 557 -250 q 547 -106 557 -157 q 536 -62 546 -101 q 529 -21 529 -33 q 539 11 529 0 q 633 -87 575 -33 q 794 -211 728 -193 l 793 -211 q 843 -219 815 -219 q 883 -206 869 -219 q 983 -65 943 -146 q 1033 76 1006 -22 l 1033 75 q 1039 88 1036 83 q 1104 -117 1061 -7 q 1142 -171 1113 -136 q 1185 -207 1153 -183 q 1239 -267 1200 -228 q 1281 -282 1258 -282 l 1338 -282 q 1510 -251 1429 -282 q 1658 29 1658 -194 l 1658 47 z "},"N":{"ha":1636,"x_min":-26,"x_max":1568,"o":"m 1471 239 q 1439 46 1471 142 q 1369 -47 1421 -7 q 1322 -82 1336 -74 q 1269 -106 1292 -101 q 1138 -104 1200 -118 q 882 10 1064 -87 l 736 115 q 621 175 664 167 q 579 149 596 179 q 565 97 565 124 l 565 79 q 571 0 565 44 l 576 -44 q 578 -74 578 -56 q 447 -242 578 -196 q 336 -269 383 -264 q 310 -265 328 -269 q 283 -261 292 -261 q 176 -233 244 -261 q 153 -214 169 -226 q 1 11 25 -137 q 1 181 3 72 q 6 417 0 283 l 15 653 q 19 742 17 676 q 57 872 31 786 q 135 992 85 944 q 265 1019 161 1017 q 331 1007 274 1019 q 513 892 431 985 q 654 732 549 850 q 819 651 728 651 q 865 674 835 651 q 906 793 876 682 q 1000 1022 953 975 q 1101 1087 1033 1056 q 1211 1115 1168 1118 q 1354 1028 1289 1111 q 1428 869 1408 956 q 1449 711 1436 831 l 1471 496 l 1471 239 m 1568 167 l 1568 429 q 1547 625 1561 472 l 1546 644 q 1521 819 1536 760 q 1379 1038 1483 965 q 1374 1046 1378 1040 q 1214 1143 1297 1143 l 1207 1143 q 1088 1110 1160 1143 q 981 1042 1015 1076 q 879 800 928 989 q 847 694 853 700 l 850 696 q 819 679 825 679 q 711 718 764 679 q 532 910 699 731 q 336 1035 439 1010 l 338 1033 q 265 1047 278 1047 q 115 1011 151 1044 q 31 882 60 960 l 32 883 q -8 742 26 871 q -12 669 -12 697 l -12 653 q -22 418 -12 639 q -26 231 -26 324 l -26 131 q -25 101 -26 135 q -25 81 -25 101 q -26 76 -25 89 q -26 43 -26 64 l -26 7 q 103 -214 -7 -117 q 208 -307 129 -258 l 206 -306 q 231 -326 222 -318 q 353 -358 294 -358 q 381 -362 363 -358 q 408 -367 399 -367 q 526 -337 464 -361 l 525 -337 q 675 -143 675 -290 q 668 -67 675 -131 q 663 10 663 -15 l 663 26 q 664 44 663 35 q 685 78 672 78 l 686 78 q 789 24 732 68 q 935 -83 838 -15 q 1183 -196 1046 -150 q 1271 -210 1225 -210 q 1343 -203 1292 -210 q 1411 -171 1374 -199 q 1456 -139 1422 -162 q 1526 -54 1504 -103 q 1554 54 1542 -22 q 1568 167 1568 126 z "},"O":{"ha":1421,"x_min":-26,"x_max":1350,"o":"m 838 407 q 818 501 843 436 q 782 576 797 558 q 653 636 733 636 q 539 619 614 636 q 418 488 472 596 q 404 408 404 460 q 514 229 404 264 q 625 211 544 219 q 760 277 696 217 q 838 407 825 338 m 1242 576 l 1250 433 q 1253 368 1253 386 q 1215 111 1253 224 q 1211 68 1215 94 q 783 -253 1125 -150 q 638 -272 719 -272 q 449 -244 540 -272 q 244 -160 315 -204 q 64 57 138 -93 q 1 306 -1 190 q 74 746 6 478 q 121 824 79 769 q 179 904 169 888 q 492 1117 286 1093 q 692 1113 514 1119 q 886 1058 807 1108 q 904 1054 893 1056 l 928 1049 q 1118 881 1018 1028 l 1131 868 q 1144 850 1140 858 q 1215 644 1183 775 q 1242 576 1226 625 m 1338 515 q 1310 585 1325 557 q 1242 789 1276 719 q 1211 828 1239 794 q 1156 896 1183 861 q 1094 958 1119 940 q 935 1075 994 1060 l 918 1079 q 894 1086 907 1082 q 710 1140 821 1129 q 514 1144 667 1144 l 489 1144 q 154 918 267 1117 q 97 838 136 886 l 99 839 q 47 751 56 786 l 47 753 q -26 306 -26 461 l -26 299 q 36 49 -26 185 q 190 -156 101 -94 q 408 -307 261 -249 q 510 -340 438 -318 q 707 -369 606 -369 q 861 -349 792 -369 q 1308 -8 1217 -242 q 1313 36 1313 14 q 1350 299 1350 153 q 1339 508 1350 386 l 1338 515 m 625 239 l 625 239 q 522 256 550 247 q 510 258 518 256 q 501 339 501 288 q 513 406 501 385 q 614 522 563 503 q 688 536 663 533 l 694 536 q 722 539 711 539 q 776 529 747 539 q 792 492 781 519 q 810 417 810 443 l 810 413 q 742 299 799 353 q 625 239 685 244 m 618 524 l 614 522 q 618 524 617 522 z "},"P":{"ha":1233,"x_min":-26,"x_max":1203,"o":"m 579 617 q 601 710 601 651 q 524 800 601 807 q 458 758 483 797 l 446 728 q 424 671 424 674 q 452 618 424 643 q 508 593 481 593 q 579 617 513 593 m 1101 808 q 1106 738 1106 772 q 1010 465 1106 575 q 840 378 976 426 q 685 347 765 351 l 589 343 q 504 253 504 339 q 522 126 504 243 q 544 46 525 119 q 547 -1 547 28 q 544 -68 547 -29 q 529 -129 540 -82 q 490 -181 525 -147 q 292 -274 418 -274 q 149 -237 217 -274 q 47 -135 75 -199 q 28 -33 43 -126 q 24 4 26 -26 l 18 56 q 15 94 18 56 l 4 251 q 1 296 1 290 q 7 414 1 346 l 17 532 q 544 1115 63 1093 q 674 1107 597 1106 q 935 1032 806 1110 q 1101 808 1086 940 m 1199 742 q 1074 947 1185 860 q 949 1056 1026 1008 q 692 1135 818 1135 l 674 1135 q 547 1143 592 1135 q -11 533 22 1121 q -24 350 -17 442 l -24 351 q -26 311 -26 326 l -26 296 q -19 178 -26 275 l -14 100 q 13 -111 -10 35 q 22 -147 17 -135 l 22 -146 q 108 -246 49 -204 q 361 -371 197 -371 q 582 -267 500 -371 l 579 -271 q 626 -204 621 -232 l 625 -206 l 629 -189 q 642 -139 633 -176 q 644 -71 644 -100 q 642 -24 644 -37 q 618 65 629 40 l 601 183 q 615 229 601 217 q 663 246 628 242 l 660 246 l 756 250 q 919 282 842 254 q 1100 378 1061 333 q 1203 668 1203 496 q 1199 742 1203 706 m 550 635 l 533 629 q 553 676 544 651 q 574 696 561 689 q 560 639 572 661 q 550 635 554 636 m 547 635 l 551 636 q 547 635 549 635 z "},"Q":{"ha":1151,"x_min":-24,"x_max":1101,"o":"m 506 738 q 489 803 506 775 q 435 838 469 838 q 371 819 417 838 q 335 794 354 808 q 313 744 333 792 q 308 725 308 738 q 337 656 308 693 q 396 619 365 619 q 408 622 400 619 q 454 644 424 629 q 506 738 506 676 m 1004 157 q 960 56 1004 100 q 858 1 917 11 q 788 -15 799 -10 q 736 -79 742 -36 q 715 -226 736 -183 q 639 -265 706 -247 q 597 -271 618 -271 q 482 -218 538 -271 q 447 -118 447 -185 l 447 -93 q 410 6 447 -22 q 322 17 404 11 q 264 46 293 19 q 235 101 235 72 q 256 162 235 125 q 299 214 278 199 q 364 242 306 219 q 426 278 407 258 q 431 296 431 282 q 394 376 431 339 q 350 401 369 401 q 319 406 339 401 q 288 411 299 411 l 274 410 q 194 406 218 404 q 167 408 171 407 q 6 556 42 444 q 4 600 3 565 q 10 685 7 660 q 50 824 15 735 q 83 878 64 840 q 183 1011 106 944 q 340 1085 226 1047 q 478 1110 363 1092 q 514 1115 488 1111 q 711 1078 642 1118 q 722 1057 713 1075 q 790 842 796 969 q 760 476 783 704 q 749 433 756 471 q 743 382 743 394 q 747 356 743 371 q 794 297 761 306 q 833 296 819 297 l 889 290 q 1004 157 1004 265 m 1085 157 q 1011 233 1060 208 q 897 318 978 300 l 868 321 q 840 324 857 322 q 847 360 842 336 l 846 357 l 851 374 l 854 388 q 856 394 854 390 l 857 399 q 878 619 871 522 q 888 771 888 753 l 888 792 q 813 1006 888 915 q 804 1026 811 1007 q 765 1044 788 1035 q 743 1075 754 1061 q 735 1096 742 1076 q 526 1143 651 1143 l 511 1143 q 394 1128 472 1138 q 332 1111 374 1125 q 244 1079 265 1089 q 165 1032 193 1056 q 57 886 82 960 l 57 888 q 25 838 39 851 q 10 796 19 824 l 10 797 l 1 776 q -22 626 -15 735 q -24 578 -24 604 l -24 560 q -21 547 -24 556 q 68 421 -1 490 q 78 414 72 417 q 229 313 131 342 q 272 307 249 307 l 288 307 q 338 313 304 308 l 347 314 l 358 314 q 394 307 371 313 q 401 306 397 306 l 404 296 l 404 294 q 311 250 390 282 q 240 188 274 235 q 207 101 207 142 q 244 25 207 61 q 283 -1 264 7 q 314 -44 292 -25 q 389 -81 353 -79 q 419 -83 404 -81 l 419 -118 q 504 -271 419 -219 q 532 -307 514 -289 q 667 -368 594 -368 q 717 -361 693 -368 l 715 -361 q 808 -308 793 -339 q 829 -214 829 -265 l 829 -199 q 831 -183 829 -192 q 868 -110 831 -126 l 867 -110 q 931 -97 888 -106 q 1050 -31 999 -83 q 1101 88 1101 21 q 1085 158 1101 122 l 1085 157 m 440 668 l 442 669 l 417 657 l 418 658 q 406 651 410 653 l 406 656 q 428 708 406 657 q 478 733 439 718 q 440 668 474 689 z "},"R":{"ha":1146,"x_min":-28,"x_max":1115,"o":"m 1007 671 q 926 581 999 640 q 863 549 881 557 q 796 529 822 529 q 682 568 765 528 q 625 599 664 581 q 547 611 588 611 q 453 588 490 611 q 382 463 382 543 q 392 406 382 433 q 444 310 399 386 l 453 296 q 531 146 510 200 q 549 68 542 117 l 556 21 q 563 -33 563 -26 q 492 -179 563 -121 q 256 -271 381 -271 q 138 -240 190 -271 q 75 -161 104 -221 q 72 -118 71 -153 q 72 -69 74 -86 q 43 69 57 -21 q 36 81 40 74 q 11 369 25 199 q 10 444 8 403 q 6 462 10 450 q 1 479 1 474 q 0 499 0 490 l 0 518 q 8 590 0 543 q 18 660 17 638 q 36 775 21 718 q 54 808 42 786 q 199 982 92 904 q 365 1069 279 1040 q 615 1117 449 1086 q 664 1110 619 1117 l 717 1101 l 771 1097 q 832 1081 806 1094 q 942 957 876 1058 l 972 922 q 993 860 978 903 q 1018 742 1018 790 q 1007 671 1018 711 m 1103 593 q 1115 672 1115 635 q 1089 800 1115 728 q 1067 864 1079 826 q 1061 874 1064 871 l 1058 876 q 1033 904 1044 893 q 925 1028 972 994 q 843 1106 879 1086 q 776 1125 808 1119 l 722 1129 q 657 1140 708 1132 l 640 1143 q 611 1144 632 1144 q 499 1122 535 1133 l 501 1124 q 361 1097 432 1108 q 182 1004 271 1068 q 28 818 67 921 l 29 821 q 10 783 22 808 q -10 660 -8 714 q -18 603 -11 653 q -28 518 -28 533 l -28 497 q -19 450 -28 492 q -18 444 -18 447 l -18 428 q -10 286 -18 371 l 4 144 q 8 69 6 122 q 15 61 13 65 l 15 61 q 19 54 17 58 l 15 58 q 44 -74 31 -29 q 46 -81 44 -76 l 46 -89 q 44 -114 46 -97 q 43 -139 43 -131 q 50 -174 43 -158 q 133 -269 78 -232 q 325 -368 190 -368 q 579 -269 460 -368 q 660 -103 660 -203 q 654 -65 660 -83 l 654 -57 q 626 85 649 -8 q 560 218 606 139 q 486 347 524 282 l 488 346 q 479 393 479 371 q 538 494 479 458 l 536 494 q 617 514 568 514 q 682 503 649 514 q 733 476 717 488 q 863 432 831 432 l 865 432 q 949 457 899 432 q 1010 486 965 465 q 1103 594 1092 554 l 1103 593 m 15 803 q 10 783 10 803 q 15 803 13 794 m 85 733 q 79 714 82 725 q 85 733 79 733 m 85 -10 m 15 61 m 683 503 z "},"S":{"ha":1074,"x_min":-26,"x_max":993,"o":"m 896 860 q 858 789 893 831 q 794 742 822 747 q 688 725 710 725 q 626 740 668 725 q 564 756 585 756 q 522 742 540 756 q 504 706 504 728 q 538 631 504 674 q 601 581 571 589 q 683 546 661 565 q 890 192 890 369 q 875 64 890 125 q 853 18 865 49 q 749 -128 815 -71 q 592 -224 707 -164 q 408 -268 524 -258 q 339 -271 374 -271 q 143 -231 224 -271 q 18 -82 44 -182 q 1 -46 10 -71 q 88 165 -6 53 q 103 169 96 168 q 181 189 125 189 q 231 186 203 189 q 282 164 260 171 q 393 154 340 146 q 465 217 410 157 q 347 324 465 296 q 265 343 325 328 q 125 428 189 364 q 93 464 103 450 q 64 561 74 492 q 57 678 53 642 q 93 818 65 749 q 196 968 113 867 q 239 1022 210 993 q 407 1086 310 1064 q 585 1117 454 1097 q 642 1113 564 1115 q 804 1074 736 1110 q 875 988 831 1060 l 889 932 q 896 892 894 910 q 896 860 897 874 m 993 786 l 993 803 q 969 929 993 835 q 882 1031 908 1031 q 878 1032 881 1031 q 817 1099 843 1086 q 643 1140 740 1136 q 618 1129 625 1142 l 610 1115 l 601 1096 q 585 1089 594 1089 l 581 1144 q 400 1113 460 1126 q 222 1044 299 1089 q 171 982 185 1007 l 175 986 q 67 828 89 883 l 67 829 q 29 681 38 754 l 29 683 q 28 669 28 678 l 28 654 q 71 447 28 508 q 140 376 97 410 q 353 240 218 271 q 374 235 365 238 l 411 226 l 410 228 q 432 221 419 224 q 360 179 404 179 q 290 190 331 179 l 293 189 q 261 203 275 196 l 239 214 q 182 217 211 217 q 90 194 124 217 q 71 189 85 192 q -26 -33 -26 71 l -26 -51 q -6 -96 -21 -68 q 97 -235 22 -192 q 321 -364 181 -347 q 404 -368 356 -368 q 479 -365 449 -368 q 674 -318 601 -354 q 836 -218 783 -262 q 947 -62 910 -156 l 947 -64 l 951 -56 q 969 -18 956 -46 q 988 122 988 57 q 924 324 988 221 l 924 322 q 788 483 899 364 q 701 567 740 535 q 608 606 683 585 q 601 636 601 619 q 617 656 601 649 q 633 658 625 658 q 694 643 651 658 q 757 628 736 628 q 869 644 788 628 q 953 708 910 653 q 993 786 986 751 z "},"T":{"ha":1188,"x_min":-29,"x_max":1136,"o":"m 1035 39 q 1026 -26 1032 13 q 1001 -107 1019 -47 q 957 -165 996 -126 q 896 -215 918 -204 q 718 -268 814 -258 q 560 -260 651 -275 q 371 -204 443 -240 q 333 -169 350 -183 q 231 67 231 -83 q 233 110 231 82 q 236 154 236 139 q 196 224 236 208 q 110 238 189 228 q 3 353 18 249 q 1 450 -6 410 q 18 476 10 460 q 208 585 71 581 q 221 656 221 615 q 211 741 221 685 q 201 826 201 797 q 210 932 201 872 q 217 947 213 939 l 226 967 q 276 1063 238 1018 q 363 1117 314 1108 q 469 1110 414 1125 q 560 1029 503 1100 q 588 963 575 1010 q 601 886 601 915 q 589 743 601 788 q 589 668 576 699 q 633 633 600 642 q 693 625 647 631 q 811 503 811 613 q 718 333 811 381 q 622 289 697 322 q 594 251 599 274 q 653 179 589 218 q 675 172 664 172 q 751 246 708 172 q 772 279 765 269 q 849 328 793 310 q 869 332 857 332 q 1001 247 956 332 q 1039 85 1039 179 q 1035 39 1039 57 m 1132 -36 q 1136 15 1136 -19 q 1021 268 1136 193 q 897 357 971 346 q 908 433 908 401 q 826 568 908 533 q 696 653 793 643 q 682 654 686 653 q 685 667 682 658 q 699 817 699 713 q 683 901 699 853 l 683 900 q 651 976 669 953 q 578 1051 610 1031 q 436 1146 508 1139 q 397 1147 422 1147 q 270 1097 324 1147 q 199 972 217 1047 l 201 978 q 182 940 194 965 q 174 825 174 882 q 183 736 174 774 l 182 738 q 193 656 193 686 q 188 611 193 633 q -7 489 49 600 l -6 490 q -25 461 -17 471 q -29 411 -29 436 q 61 219 -29 257 q 175 140 101 147 q 207 136 201 138 l 207 124 q 206 110 206 119 q 203 67 203 82 q 315 -190 203 -97 l 326 -201 q 338 -210 329 -204 q 385 -260 360 -239 l 396 -271 q 425 -297 413 -285 q 746 -367 568 -367 l 769 -367 q 978 -310 868 -367 q 1049 -251 1004 -296 l 1047 -251 q 1110 -149 1093 -206 q 1124 -100 1114 -128 q 1132 -36 1129 -64 z "},"U":{"ha":1424,"x_min":-26,"x_max":1363,"o":"m 1264 589 q 1265 518 1265 553 q 1061 -97 1265 133 q 978 -165 1054 -106 q 708 -271 854 -262 q 572 -260 681 -272 q 218 -142 322 -231 q 35 72 76 -22 l 26 114 q 1 294 1 178 q 25 511 1 357 q 54 746 51 683 q 75 897 58 840 q 174 1055 103 993 q 342 1117 246 1117 q 438 1101 403 1117 q 507 1035 478 1083 l 525 904 q 507 763 525 839 l 469 600 q 449 435 453 517 q 467 257 443 324 q 588 181 481 219 q 631 179 603 175 q 674 193 657 183 q 747 319 714 222 q 782 464 774 396 l 782 619 q 779 664 782 601 q 775 707 778 701 q 747 736 750 715 q 744 888 736 826 q 771 926 756 900 q 821 982 794 968 q 944 1013 878 1013 q 1111 965 1033 1013 q 1222 836 1194 915 q 1264 589 1258 733 m 1318 776 q 1221 901 1292 850 q 1128 986 1188 950 l 1129 986 q 944 1040 1043 1040 q 807 1006 868 1040 l 808 1007 q 733 918 781 992 q 718 899 725 908 q 714 829 714 867 q 719 733 714 800 q 750 686 722 703 l 750 675 q 752 653 750 668 q 754 631 754 638 l 754 467 q 701 285 740 360 l 701 286 q 657 215 667 222 l 660 217 q 625 206 646 210 l 626 207 q 615 206 619 206 l 607 206 q 597 207 600 206 q 554 224 575 214 q 544 324 544 272 l 544 342 q 554 456 544 375 q 569 549 560 501 l 568 547 q 601 682 581 592 l 600 681 q 622 835 622 771 q 610 925 622 881 q 604 961 608 928 l 604 972 q 526 1053 571 1028 q 342 1144 468 1144 q 132 1051 215 1144 q 49 904 68 981 l 49 906 q 26 747 31 838 q -3 515 25 694 q -26 294 -26 360 q 0 104 -26 171 l 0 108 q 7 67 3 94 q 169 -136 40 -7 q 269 -232 233 -200 q 639 -357 376 -326 q 769 -368 735 -368 l 778 -368 q 1064 -257 925 -368 l 1126 -207 q 1153 -183 1150 -187 l 1151 -185 q 1363 449 1363 53 q 1361 519 1363 481 q 1318 776 1356 672 z "},"V":{"ha":1603,"x_min":-26,"x_max":1543,"o":"m 1442 979 q 1442 850 1450 893 q 1388 656 1425 767 q 1319 465 1353 561 q 1233 268 1310 438 q 1164 153 1215 243 q 1006 -97 1104 14 q 769 -268 893 -226 q 639 -268 713 -287 q 488 -160 575 -251 q 290 85 368 -35 q 251 146 281 100 q 113 447 181 314 q 50 575 65 540 q 1 790 -3 696 q 87 946 6 875 q 254 1015 168 1017 q 383 946 315 1014 q 472 822 439 890 q 594 644 483 800 q 636 603 606 628 q 682 576 667 578 q 747 608 711 574 q 793 669 778 638 q 864 810 839 764 q 949 943 907 889 q 1201 1117 1060 1089 q 1249 1122 1229 1122 q 1426 1011 1390 1122 q 1442 979 1432 1001 m 1538 919 q 1521 951 1528 940 q 1438 1056 1497 1022 q 1249 1150 1388 1150 q 1194 1143 1218 1150 l 1196 1144 q 926 960 1046 1115 q 768 681 867 882 q 733 633 757 658 q 686 604 706 604 l 685 604 q 675 608 681 604 q 624 679 663 629 q 551 789 606 701 q 439 924 492 885 q 403 964 431 936 q 254 1043 326 1042 q 68 965 158 1044 q -26 790 -26 885 l -26 781 q 7 608 -26 694 q 78 451 32 544 l 154 297 q 229 129 181 246 q 267 69 239 113 q 581 -292 357 -72 q 701 -364 632 -342 l 700 -364 q 778 -375 731 -375 q 849 -364 817 -375 q 1093 -187 976 -319 q 1257 71 1196 -71 q 1326 183 1299 142 q 1415 388 1404 354 l 1415 386 l 1485 578 q 1539 775 1519 683 q 1543 835 1543 794 q 1539 913 1543 868 l 1538 919 z "},"W":{"ha":1739,"x_min":-26,"x_max":1676,"o":"m 1579 419 l 1550 279 q 1542 218 1547 254 q 1513 135 1533 194 l 1482 50 q 1396 -129 1442 -64 q 1129 -268 1300 -268 q 1076 -265 1099 -268 q 911 -160 1008 -257 l 857 -106 q 833 -83 838 -86 q 736 -14 781 -33 q 683 -28 713 -3 q 619 -110 663 -56 q 539 -171 582 -154 q 369 -208 438 -208 q 122 -94 221 -208 q 49 83 56 -17 q 36 104 44 92 l 26 271 q 13 504 24 331 q 1 675 10 549 q 1 725 0 701 q 4 729 3 726 l 8 735 q 264 1117 6 1117 q 376 1090 326 1117 q 447 1005 435 1060 q 460 850 460 950 l 460 519 q 463 504 460 535 q 465 457 465 474 q 469 394 467 425 q 542 328 478 324 q 578 375 560 329 q 601 468 578 388 q 631 563 619 528 q 671 653 646 608 q 713 689 682 674 q 769 704 743 704 q 793 699 783 704 q 860 635 828 685 q 922 540 885 603 q 972 438 942 483 q 1056 372 1014 374 q 1097 425 1076 399 q 1117 479 1104 433 q 1142 676 1128 518 q 1271 983 1165 938 q 1392 1008 1328 1008 q 1468 989 1442 1008 q 1514 923 1486 976 q 1547 844 1542 869 q 1550 810 1546 835 q 1579 669 1565 768 l 1579 419 m 1676 350 l 1676 611 q 1656 674 1658 629 q 1649 721 1654 686 q 1644 768 1644 751 l 1644 776 q 1553 942 1607 904 q 1528 956 1539 951 q 1483 1011 1504 997 q 1392 1036 1447 1036 q 1260 1008 1322 1036 l 1261 1010 q 1200 960 1231 997 l 1201 960 q 1165 906 1176 929 q 1114 679 1126 822 q 1090 486 1107 589 q 1074 440 1085 453 l 1075 442 q 1050 408 1060 421 q 1032 443 1039 425 l 1018 479 q 951 583 972 556 l 953 581 q 885 649 919 629 q 882 653 882 651 l 883 650 q 804 724 847 706 l 807 722 q 769 732 789 732 q 700 713 738 732 q 647 667 663 693 q 575 474 611 603 q 558 418 569 453 l 558 435 q 557 451 557 446 l 557 629 q 556 647 556 636 l 556 731 q 557 747 557 740 l 557 803 q 544 939 557 896 q 461 1043 525 1007 q 264 1144 413 1144 q -19 746 -19 1144 l -19 743 l -26 736 l -26 700 q -15 501 -26 607 l -15 503 l 8 94 l 19 78 q 24 71 22 72 l 21 82 q 101 -112 29 -31 q 158 -168 107 -118 q 281 -271 246 -251 q 439 -306 344 -306 q 540 -290 497 -306 l 539 -290 l 547 -287 q 707 -199 643 -267 q 771 -118 750 -143 q 790 -108 785 -108 q 789 -106 793 -108 q 961 -249 839 -126 q 1143 -362 1065 -353 l 1150 -362 q 1199 -365 1172 -365 q 1488 -214 1385 -365 q 1578 -29 1536 -142 q 1639 142 1592 10 l 1647 204 q 1672 325 1658 244 q 1675 343 1672 335 l 1676 350 m 560 417 q 558 415 560 415 l 558 415 l 560 417 z "},"X":{"ha":1503,"x_min":-25,"x_max":1451,"o":"m 1331 235 q 1354 147 1354 194 q 1301 -10 1354 71 q 1176 -114 1247 -94 q 1139 -119 1164 -119 q 919 -42 1031 -119 q 761 74 797 81 q 667 -10 711 64 q 615 -77 651 -35 q 565 -142 579 -119 q 506 -214 542 -178 q 431 -264 461 -258 q 383 -269 401 -269 q 294 -249 338 -269 q 113 -108 190 -212 q 90 -28 90 -78 q 119 96 90 33 q 181 208 125 110 q 243 326 217 274 q 249 353 249 338 q 163 474 249 397 q 40 597 57 568 q 3 732 3 664 q 14 836 3 799 q 70 926 29 882 q 153 968 111 969 q 197 976 168 975 q 308 929 218 974 q 425 829 356 906 q 535 726 497 749 q 676 801 621 765 q 756 896 714 826 q 815 993 810 986 q 942 1103 871 1058 q 1004 1117 961 1115 q 1093 1063 1051 1119 q 1146 971 1104 1049 q 1199 799 1199 874 q 1179 678 1199 740 q 1135 564 1169 647 q 1119 506 1121 532 q 1146 424 1115 447 q 1331 235 1281 319 m 1304 315 q 1218 399 1267 354 q 1217 422 1217 406 l 1217 436 q 1229 483 1221 464 l 1239 506 l 1238 504 q 1253 536 1243 514 l 1253 535 q 1296 729 1296 639 q 1240 915 1296 811 q 1194 997 1204 983 q 1128 1061 1165 1039 q 1115 1079 1125 1065 q 1007 1144 1067 1144 l 1003 1144 q 928 1126 958 1144 q 794 1011 850 1079 q 732 910 781 994 q 661 825 696 847 q 536 757 614 796 q 447 847 506 789 q 381 911 421 874 q 321 954 344 942 q 199 1004 232 1000 q 147 996 167 1003 q 46 942 97 993 q -15 840 -6 890 q -25 732 -25 789 q 15 583 -25 660 q 101 490 25 564 l 200 394 q 221 353 221 369 q 217 335 221 343 l 217 336 q 156 222 190 283 l 100 122 q 63 -28 63 54 q 90 -125 63 -87 q 174 -212 133 -183 q 356 -344 269 -312 l 351 -343 q 453 -367 403 -367 l 460 -367 q 592 -306 531 -367 l 592 -307 q 658 -226 614 -285 q 760 -93 688 -190 q 836 -24 801 -31 l 838 -24 q 896 -62 854 -24 q 969 -131 917 -82 q 1208 -217 1093 -217 q 1256 -208 1240 -217 q 1390 -99 1326 -186 l 1390 -100 q 1451 78 1451 -14 q 1403 210 1451 146 q 1304 315 1393 222 z "},"Y":{"ha":1256,"x_min":-28,"x_max":1189,"o":"m 1090 556 q 1074 313 1093 496 q 1061 214 1068 267 q 1035 131 1054 192 q 999 11 1025 100 q 785 -211 965 -111 q 690 -239 760 -225 l 586 -260 q 489 -269 538 -269 q 324 -243 444 -269 q 225 -215 303 -239 q 199 -199 213 -204 q 98 -121 136 -172 q 60 -4 60 -69 q 129 126 60 67 q 219 175 183 174 q 346 154 263 176 q 472 133 429 132 q 482 135 472 133 q 499 135 490 135 l 575 135 q 671 190 657 146 q 660 235 676 210 q 624 269 643 261 q 561 269 621 271 q 382 253 468 257 q 333 253 364 251 q 64 407 165 258 q 6 540 19 472 q 3 617 1 560 l 6 743 l 6 911 q 17 964 8 929 q 82 1050 39 1022 q 215 1092 146 1092 q 292 1067 250 1092 q 349 1011 333 1042 q 375 875 369 968 l 383 724 q 507 583 392 583 q 606 778 613 583 q 621 1006 600 940 q 792 1119 660 1119 q 907 1093 860 1119 q 950 1031 918 1076 l 1011 938 q 1038 849 1031 908 l 1044 797 q 1047 778 1044 790 q 1049 768 1049 765 q 1079 600 1068 694 q 1090 556 1085 583 m 1186 494 q 1183 506 1186 499 l 1185 504 q 1176 535 1181 518 q 1144 704 1161 643 l 1144 714 q 1143 724 1143 721 q 1132 806 1135 792 q 1104 882 1122 854 q 994 1044 1056 958 q 963 1060 985 1050 q 925 1114 939 1093 q 792 1147 867 1147 q 732 1140 756 1147 l 733 1142 q 663 1108 701 1136 q 610 1050 624 1079 q 576 832 576 978 q 578 829 576 839 q 578 806 578 821 l 578 751 q 507 611 578 611 q 490 613 496 611 q 472 807 479 651 q 443 954 468 904 l 443 953 q 375 1021 425 990 q 374 1024 374 1021 l 374 1022 q 315 1085 358 1056 q 233 1119 272 1114 l 215 1119 q -11 969 51 1119 q -22 914 -17 956 l -22 746 q -24 710 -22 726 l -26 676 q -28 617 -28 660 q -21 533 -28 558 l -22 535 q 35 399 -11 472 q 133 289 82 325 q 225 207 176 231 q 228 205 228 206 q 232 203 229 204 l 218 203 q 111 147 174 203 q 32 -4 32 78 q 142 -200 32 -126 q 257 -294 186 -264 l 254 -292 q 281 -310 264 -297 q 342 -326 297 -315 q 386 -340 369 -333 q 558 -367 513 -367 q 764 -336 604 -367 q 867 -306 836 -322 q 1096 -64 1068 -194 l 1094 -67 q 1158 139 1122 31 q 1171 238 1161 156 q 1189 438 1189 393 l 1189 464 q 1188 489 1189 476 l 1186 494 m 571 163 l 529 163 l 608 171 q 571 163 594 165 m 1146 699 q 1144 701 1144 699 l 1146 699 z "},"Z":{"ha":1271,"x_min":-25,"x_max":1204,"o":"m 1099 53 q 1071 -1 1096 49 q 844 -206 1029 -118 q 710 -239 831 -212 q 400 -271 560 -272 q 81 -200 197 -269 q 19 -101 40 -176 q 3 18 3 -43 q 19 74 3 38 q 49 129 35 110 q 156 274 94 214 q 511 613 254 368 q 522 638 521 622 q 517 664 524 654 q 461 692 497 683 q 385 703 379 703 l 371 703 q 296 696 342 703 q 221 686 226 686 q 182 683 194 683 q 32 774 76 683 q 24 835 19 799 q 89 981 32 924 q 136 1035 106 1004 q 315 1088 167 1056 q 421 1110 338 1093 q 544 1117 453 1113 q 760 1108 681 1121 q 943 1008 879 1090 q 985 885 985 956 q 961 760 985 824 q 914 635 949 728 q 846 539 890 606 q 779 442 801 472 q 753 406 772 432 q 721 336 721 360 q 722 328 721 329 q 783 299 739 306 q 858 293 785 297 q 1053 293 917 296 q 1072 282 1060 293 q 1088 264 1085 271 q 1107 147 1107 218 q 1099 53 1107 94 m 1196 -22 q 1204 78 1204 19 q 1182 206 1204 158 q 1156 235 1176 218 q 1122 251 1135 251 l 1121 251 q 1103 289 1118 263 q 1054 321 1078 315 q 1039 322 1058 321 q 996 322 1019 322 l 899 322 l 851 321 q 844 322 847 322 q 911 407 900 392 q 969 496 947 456 q 1008 551 983 514 q 1057 681 1029 604 q 1082 815 1082 749 q 974 1014 1082 932 q 965 1025 972 1015 q 764 1136 899 1115 q 543 1144 703 1146 q 481 1141 522 1144 q 417 1138 439 1138 q 310 1115 381 1132 q 121 1058 182 1101 q 68 999 86 1024 q -4 838 7 938 l -3 839 q -6 826 -6 832 l -6 818 q 8 760 -6 786 l 7 761 q 83 678 38 701 q 251 586 133 586 q 346 596 283 586 q 440 606 408 606 l 451 606 q 464 604 457 606 q 342 486 396 536 l 251 403 q 154 310 225 376 q 129 288 146 303 q 61 207 96 251 q 24 143 43 178 q -25 18 -25 54 q 3 -140 -25 -85 q 32 -185 24 -172 q 88 -235 56 -219 q 136 -293 103 -258 q 468 -368 268 -365 q 785 -336 628 -369 q 925 -300 847 -322 q 1165 -82 1118 -207 q 1175 -65 1165 -75 l 1185 -46 q 1192 -32 1188 -42 l 1196 -22 z "},"a":{"ha":1451,"x_min":-26,"x_max":1383,"o":"m 858 329 q 708 422 857 406 q 639 414 707 422 q 556 363 601 410 q 507 278 511 315 q 568 161 499 214 q 667 121 621 121 q 686 122 676 121 q 714 118 700 118 q 824 193 782 118 q 858 329 858 256 m 1282 429 q 1285 361 1282 410 q 1285 279 1288 314 q 1214 67 1276 174 q 1071 -106 1158 -31 q 956 -175 1033 -137 q 829 -225 886 -208 q 571 -269 675 -269 q 86 -47 257 -269 q 7 156 4 60 q 1 193 4 167 q 51 310 15 244 q 101 424 64 347 q 171 503 121 453 q 240 551 204 536 q 493 593 317 585 q 733 628 669 601 q 760 689 756 638 q 756 739 761 711 q 689 785 743 774 q 660 786 676 788 q 549 757 608 782 l 429 707 q 382 701 411 701 q 194 779 247 701 q 168 867 168 817 q 169 882 168 878 q 239 1018 185 956 l 290 1054 q 492 1117 356 1100 q 555 1112 514 1119 q 613 1104 596 1104 q 913 1056 775 1104 l 929 1043 q 1210 783 1115 990 q 1282 429 1282 625 m 1379 360 q 1328 667 1379 524 q 1157 922 1269 831 q 943 1067 1071 1029 l 925 1081 q 613 1132 778 1132 q 555 1138 593 1132 q 497 1144 517 1144 l 489 1144 q 274 1076 343 1131 q 221 1039 244 1053 q 142 888 158 967 l 142 889 q 140 876 140 882 l 140 867 q 229 711 140 757 q 242 690 232 704 q 338 625 269 650 q 375 614 340 624 q 151 522 218 589 q 78 439 97 468 q 25 318 58 400 l 26 324 q -26 194 -8 258 q -21 153 -26 181 l -21 150 q 58 -57 -21 56 q 154 -161 103 -121 q 310 -285 229 -243 q 640 -367 467 -367 q 907 -321 749 -367 l 906 -321 q 1158 -196 1075 -268 q 1367 119 1304 -69 q 1383 247 1383 169 q 1381 307 1383 290 l 1381 350 q 1379 360 1379 357 m 714 146 q 686 150 700 146 q 667 149 681 149 q 608 167 639 149 q 603 194 603 178 l 603 201 q 604 208 604 206 q 648 274 608 233 q 711 317 688 314 q 775 325 764 322 q 831 315 793 322 q 800 207 828 257 q 714 146 767 146 m 729 671 l 724 654 q 542 625 669 633 l 629 663 l 629 661 q 729 689 696 689 l 732 689 q 729 671 729 675 z "},"b":{"ha":1039,"x_min":-25,"x_max":993,"o":"m 554 186 q 528 274 554 229 q 458 325 499 325 q 410 310 440 325 q 396 296 406 304 q 365 289 386 294 q 333 189 333 244 q 438 78 333 75 q 554 186 554 117 m 894 146 q 892 135 894 142 q 889 124 889 128 q 786 -106 889 7 q 575 -250 693 -210 q 432 -274 506 -274 q 126 -162 247 -274 q 32 -26 57 -99 q 3 136 15 22 q 11 231 1 150 q 143 957 53 574 q 188 1046 164 978 q 222 1100 207 1089 q 290 1115 229 1103 q 311 1117 297 1117 q 425 1082 372 1117 q 467 967 461 1058 q 481 892 482 936 q 460 692 481 885 q 451 619 451 614 q 596 518 451 525 q 638 515 607 518 q 858 390 813 496 q 894 146 904 285 m 993 88 l 993 106 q 872 424 993 357 q 600 546 811 532 q 557 550 575 547 l 558 550 q 550 551 553 550 l 578 822 q 564 903 578 864 q 510 1036 556 1007 q 478 1054 504 1040 q 440 1106 464 1090 q 311 1144 382 1144 l 297 1144 q 250 1137 286 1144 q 208 1125 214 1129 q 161 1053 186 1108 q 118 971 142 994 q 18 479 61 733 q -17 233 -1 364 q -25 142 -25 161 l -25 133 q -4 -6 -15 56 q 118 -193 14 -103 q 129 -203 121 -196 l 151 -228 q 501 -371 279 -371 q 654 -346 583 -371 l 653 -346 q 879 -192 781 -301 q 986 54 986 -71 l 988 58 q 989 65 988 63 l 988 60 q 993 88 993 71 m 526 186 q 433 106 526 139 l 431 106 l 431 119 q 451 194 431 158 q 465 197 457 194 l 469 197 q 497 218 475 200 q 519 226 500 219 q 526 186 526 203 z "},"c":{"ha":1217,"x_min":-26,"x_max":1146,"o":"m 957 597 q 799 547 861 547 q 746 550 781 547 q 661 567 725 554 q 571 575 604 578 q 494 536 538 572 q 436 468 450 500 q 436 388 418 428 q 494 307 464 325 q 603 286 533 283 q 728 307 638 288 q 851 321 804 324 q 944 272 897 318 q 1006 183 988 231 q 1018 128 1007 168 q 1026 72 1026 93 q 983 -58 1026 7 q 886 -160 944 -118 q 507 -272 729 -272 q 156 -169 288 -272 q 79 -76 124 -144 q 22 33 35 -8 q 1 165 1 100 l 1 276 q 15 369 1 314 q 35 464 21 394 q 67 665 42 517 q 175 868 88 772 q 206 921 186 890 q 338 1026 271 983 q 692 1117 489 1124 q 814 1092 732 1115 l 835 1082 q 864 1068 847 1075 q 1049 765 1049 1000 q 957 597 1049 644 m 1110 568 q 1146 688 1146 619 l 1146 696 q 1013 989 1146 897 q 872 1094 964 1063 l 828 1117 q 692 1144 729 1144 l 658 1144 q 322 1050 463 1144 q 182 936 246 999 q 171 918 178 931 l 172 919 q 153 886 169 914 q 40 672 75 803 q 7 467 24 613 q 1 429 6 456 l -11 376 q -26 276 -26 313 l -26 164 q -4 25 -26 89 q 60 -93 10 -15 q 140 -193 113 -178 l 139 -192 q 164 -210 147 -199 l 194 -247 q 210 -262 203 -257 l 208 -261 q 576 -369 346 -369 q 972 -251 813 -369 l 971 -253 q 1078 -141 1032 -215 q 1124 3 1124 -67 q 1108 96 1124 42 l 1108 94 q 1103 121 1107 96 q 1001 250 1079 186 q 961 294 989 268 q 851 349 904 349 l 840 349 q 722 335 792 349 q 603 314 632 317 l 592 314 q 535 319 556 314 q 524 358 524 342 q 531 386 524 374 q 578 441 539 408 q 642 478 618 474 l 653 478 q 725 469 678 478 l 788 458 q 814 453 801 456 l 819 453 q 849 450 828 450 l 868 450 q 1039 503 939 450 q 1111 568 1082 526 l 1110 568 z "},"d":{"ha":1303,"x_min":-28,"x_max":1232,"o":"m 708 153 q 732 238 732 182 q 703 336 732 297 q 569 404 653 404 q 543 400 553 404 q 453 363 465 381 q 425 276 425 322 q 468 143 425 219 q 576 111 522 111 q 607 114 592 111 q 663 126 628 114 q 708 153 697 139 m 1090 36 q 1003 -100 1078 0 q 974 -137 993 -114 q 501 -274 758 -274 q 438 -271 457 -274 q 235 -222 307 -253 q 39 -58 125 -176 q 1 96 21 -33 q 17 229 -6 140 q 44 340 24 258 q 107 446 68 396 q 204 521 158 511 q 474 550 296 528 q 547 593 485 551 q 565 626 565 603 q 547 696 565 646 q 506 899 506 810 q 676 1117 506 1128 q 865 1043 772 1111 q 1003 892 954 981 q 1079 749 1017 868 q 1135 346 1135 557 q 1090 36 1135 164 m 1186 -42 q 1232 276 1232 92 q 1175 688 1232 492 q 1096 838 1151 739 l 1097 835 q 983 969 1063 897 q 874 1069 933 1029 q 676 1144 764 1144 l 663 1144 q 478 899 478 1144 q 494 768 478 832 l 493 771 q 515 703 496 754 l 515 704 l 519 693 q 524 681 519 692 q 538 626 538 643 q 532 617 538 618 q 469 578 474 579 q 197 549 379 567 q 85 463 142 536 q 21 356 44 410 l 3 288 q -11 235 -1 272 l -10 236 q -28 122 -28 169 l -28 106 q -12 13 -28 76 q 17 -75 3 -56 q 114 -181 64 -143 q 293 -317 201 -276 q 504 -368 368 -350 q 571 -371 525 -371 q 1060 -229 835 -371 l 1079 -206 q 1144 -118 1104 -174 q 1186 -43 1168 -86 l 1186 -42 m 688 171 q 651 151 683 165 l 653 153 q 578 139 608 139 q 533 144 554 139 q 522 207 522 171 q 546 278 522 243 q 626 306 551 286 q 639 307 629 307 q 693 296 671 307 q 704 238 704 269 q 686 169 704 194 l 688 171 z "},"e":{"ha":1410,"x_min":-28,"x_max":1343,"o":"m 675 658 q 617 732 671 707 q 526 771 579 750 q 509 755 521 765 q 492 739 497 744 q 453 665 474 714 q 450 644 450 651 q 483 574 450 606 q 554 542 515 542 q 581 546 568 542 q 671 622 607 565 q 675 658 678 628 m 1246 78 q 1047 -190 1246 -99 q 706 -269 832 -264 q 688 -265 700 -269 q 671 -261 676 -261 l 515 -246 q 376 -211 469 -235 q 296 -169 344 -193 q 7 267 89 -68 q 1 364 6 299 q 39 597 -6 469 q 149 833 63 667 q 479 1068 244 1019 q 665 1107 528 1078 q 746 1117 710 1117 q 850 1094 760 1114 q 1058 939 990 1064 q 1114 676 1114 833 q 1110 600 1114 649 q 1075 514 1107 568 q 926 392 1026 432 q 574 319 861 365 q 551 296 564 317 q 557 276 551 286 q 668 250 608 250 q 822 286 721 250 q 976 322 924 322 q 1122 282 1057 322 q 1246 78 1246 206 m 1225 222 q 1129 308 1182 279 q 1075 333 1117 315 q 1160 417 1122 364 q 1207 526 1201 475 q 1211 607 1211 564 q 1178 824 1211 724 q 1054 997 1136 946 q 856 1122 986 1094 l 857 1121 q 746 1144 757 1144 q 657 1133 688 1144 l 660 1135 l 465 1094 q 283 1022 356 1067 l 285 1022 q 124 846 182 958 q 64 728 78 758 q 13 606 29 654 q -28 390 -28 492 q -24 335 -28 372 q -21 279 -21 297 l -21 265 q 203 -144 47 -21 q 353 -264 264 -219 q 433 -306 375 -275 q 500 -322 450 -310 l 543 -335 q 639 -350 579 -344 l 711 -356 q 736 -358 733 -358 q 749 -362 726 -358 q 775 -367 772 -367 q 1119 -289 908 -361 q 1343 8 1343 -187 q 1225 222 1343 136 m 649 640 l 603 600 q 568 571 589 588 q 554 569 564 569 l 547 569 l 547 578 q 567 625 547 586 q 583 653 575 642 l 600 669 l 643 650 q 647 649 644 649 l 647 644 q 649 640 647 640 m 550 590 l 549 585 q 550 590 549 588 z "},"f":{"ha":1121,"x_min":-28,"x_max":1067,"o":"m 969 819 q 953 692 969 738 q 885 638 943 664 q 838 632 871 629 q 779 646 800 635 q 717 686 757 663 q 640 711 665 715 q 610 654 615 707 q 608 639 608 647 q 650 542 608 563 q 763 517 651 539 q 843 468 819 506 q 863 376 863 438 q 851 317 863 336 q 817 229 847 290 q 749 185 797 210 q 672 154 700 160 q 619 60 619 144 l 619 -111 q 599 -175 608 -143 q 560 -229 583 -211 q 508 -269 560 -261 q 419 -272 492 -272 q 404 -271 408 -272 q 288 -225 360 -258 q 242 -171 258 -208 q 204 -75 204 -87 l 204 136 q 161 201 188 182 q 88 228 139 217 q 0 329 0 246 q 128 507 0 422 q 196 532 151 513 q 232 603 232 561 q 217 675 232 628 q 201 744 203 722 q 189 800 200 763 q 178 858 178 838 q 182 882 178 871 q 239 983 201 933 q 286 1046 253 1008 q 508 1114 367 1114 q 782 1054 649 1114 q 942 919 897 1003 q 957 901 946 917 q 969 819 969 865 m 1067 750 q 1051 844 1067 801 q 1032 868 1039 861 q 949 960 1004 917 q 793 1079 897 1032 q 508 1142 654 1142 q 267 1065 357 1142 q 214 997 246 1042 l 217 1000 q 156 892 174 944 q 150 858 150 881 l 169 767 q 172 744 172 754 q 201 629 181 713 q 204 603 204 618 q 181 554 204 578 q 114 532 154 543 q -28 329 -28 440 q 51 208 -28 240 l 60 192 q 71 176 64 183 q 151 131 97 143 q 176 125 154 129 l 176 -75 q 217 -182 176 -90 q 275 -250 238 -229 q 288 -256 283 -253 q 344 -319 307 -297 q 465 -367 418 -351 q 476 -369 474 -369 l 489 -369 q 583 -347 526 -369 q 647 -318 608 -337 l 646 -321 q 692 -262 676 -299 q 701 -228 700 -229 q 717 -186 701 -221 l 717 -10 q 754 61 717 42 q 838 93 796 76 l 836 93 q 910 144 883 118 q 949 242 921 168 q 960 307 960 272 q 892 451 960 411 q 878 460 888 454 q 874 469 875 465 q 830 517 863 494 q 768 544 797 539 l 706 557 l 706 569 q 708 590 706 576 l 707 589 l 713 614 l 717 614 q 772 592 733 614 l 772 593 l 842 550 q 906 535 867 535 l 921 535 q 967 543 949 535 q 1049 613 1035 575 q 1067 750 1067 663 z "},"g":{"ha":1242,"x_min":-26,"x_max":1176,"o":"m 463 743 q 413 699 428 715 q 379 644 382 667 q 415 554 372 588 q 513 525 453 525 q 554 531 538 525 q 624 617 624 538 q 596 689 624 664 q 522 722 574 708 q 463 743 471 735 m 1079 444 q 1061 296 1079 367 l 1024 150 q 1013 125 1017 139 q 708 -208 953 -99 q 456 -265 582 -265 q 297 -235 364 -265 q 200 -212 264 -232 q 107 -150 153 -187 q 17 11 17 -76 q 28 54 17 35 q 31 74 28 60 q 72 126 44 92 q 122 165 100 160 q 247 185 196 185 q 299 181 279 185 q 476 151 433 151 q 568 168 529 151 q 589 189 585 175 q 562 260 590 224 q 500 301 533 297 q 346 299 408 313 q 289 293 321 293 q 74 417 157 293 q 1 664 1 525 q 42 829 1 761 q 60 872 49 850 l 96 931 q 115 960 107 949 q 189 1040 151 1008 q 233 1060 201 1050 q 288 1078 275 1071 q 367 1103 324 1094 l 438 1115 q 556 1076 475 1096 q 680 1044 654 1053 q 801 997 706 1035 q 968 831 899 947 q 1053 635 1008 763 q 1058 601 1056 621 q 1079 444 1079 456 m 1163 492 q 1150 572 1158 518 q 944 914 1071 810 q 811 1024 878 993 q 596 1100 717 1067 l 599 1100 q 442 1144 543 1110 l 361 1131 q 276 1105 332 1125 q 171 1061 219 1085 q 93 975 125 1021 l 93 976 q 15 839 36 894 l 18 843 q -26 664 -26 769 q 54 399 -26 514 q 133 314 89 349 q 264 213 192 239 l 247 213 q 115 192 190 213 q 50 143 79 182 q 18 101 42 132 l 4 85 q 0 60 0 69 q -11 11 -11 35 q 89 -172 -11 -92 l 89 -171 q 97 -178 92 -172 q 158 -242 118 -208 l 158 -240 q 258 -307 199 -276 q 361 -332 293 -317 q 525 -362 438 -362 q 789 -303 657 -362 q 1108 49 1047 -186 l 1108 47 q 1118 67 1110 56 l 1157 219 q 1176 375 1176 296 q 1161 494 1176 439 l 1163 492 m 550 558 q 513 553 533 553 q 475 557 492 553 l 475 558 q 476 575 475 569 q 501 610 478 586 l 514 622 q 535 640 521 629 q 586 624 554 632 q 596 621 590 624 l 596 617 q 550 558 596 563 m 561 194 l 558 194 q 556 193 557 193 l 557 193 q 476 179 525 179 q 363 196 446 179 q 428 203 385 196 q 493 210 471 210 q 560 204 521 210 l 560 200 q 561 194 561 196 z "},"h":{"ha":1429,"x_min":-26,"x_max":1403,"o":"m 1271 -28 q 1224 -76 1261 -47 q 1167 -110 1188 -106 q 1007 -135 1050 -135 q 918 -96 963 -135 q 865 -28 882 -65 q 822 69 856 -1 l 790 131 q 733 208 774 174 q 647 247 689 247 q 572 161 578 247 q 578 99 569 129 q 601 -82 607 -12 q 493 -236 594 -172 q 369 -271 438 -271 l 356 -271 q 237 -230 294 -271 q 150 -132 179 -189 q 96 36 110 -12 q 64 213 72 126 q 42 411 58 278 q 13 604 29 481 q 1 790 10 653 q 96 1042 -6 932 q 240 1118 167 1118 q 365 1077 303 1118 q 440 978 428 1036 q 469 922 450 964 q 476 824 469 863 q 481 800 476 819 q 494 758 486 769 q 613 701 535 701 q 711 717 646 701 q 835 738 800 738 q 1107 646 1000 738 q 1124 642 1113 643 q 1183 583 1142 628 q 1238 483 1200 556 q 1247 439 1242 468 q 1306 140 1306 261 q 1271 -28 1306 44 m 1365 -110 q 1403 71 1403 -31 q 1344 374 1403 194 l 1342 388 q 1332 426 1340 396 l 1299 490 q 1275 531 1293 499 l 1240 567 q 1208 594 1229 578 q 1206 600 1206 597 q 1135 668 1165 643 l 1128 668 q 1121 669 1124 669 q 835 765 1008 765 q 796 763 808 765 l 704 742 q 613 729 649 729 q 578 733 592 729 l 578 735 q 567 860 567 783 q 536 918 550 896 q 450 1029 521 982 q 378 1100 425 1069 q 240 1146 307 1146 q 75 1060 153 1146 q -26 804 -26 947 l -26 789 q -22 694 -26 750 l -15 601 q 1 468 -10 536 q 32 221 4 449 q 81 -19 50 69 q 101 -78 86 -35 l 117 -122 q 214 -246 142 -196 q 307 -331 247 -294 q 422 -368 367 -368 l 439 -368 q 663 -249 581 -368 q 699 -154 696 -200 l 699 -156 q 700 -142 700 -149 l 700 -126 q 674 36 700 -64 l 674 35 q 668 81 668 57 q 717 150 668 150 q 756 138 735 150 q 764 121 757 133 l 796 60 q 806 36 799 51 l 840 -40 q 926 -137 865 -94 q 1006 -214 956 -182 q 1076 -232 1033 -232 q 1200 -214 1136 -232 q 1274 -193 1225 -210 q 1308 -169 1289 -183 l 1307 -171 q 1365 -108 1350 -142 l 1365 -110 z "},"i":{"ha":728,"x_min":-29,"x_max":644,"o":"m 543 135 q 547 56 547 93 q 521 -93 547 -40 q 388 -249 456 -224 q 318 -271 354 -261 q 156 -253 203 -282 q 65 -131 119 -231 q 40 -39 61 -124 q 24 107 24 28 q 63 382 24 219 q 58 401 64 388 q 53 421 53 415 q 135 508 53 469 q 219 531 182 531 l 236 531 q 404 464 321 531 q 511 318 483 401 q 543 135 531 261 m 508 949 q 361 640 524 707 q 253 642 257 640 q 129 664 185 644 q 114 676 125 668 q -1 857 -1 731 q 1 896 -1 878 q 51 1008 6 924 q 129 1104 93 1085 q 244 1119 158 1119 q 457 1046 388 1119 q 508 949 506 994 m 607 257 q 556 347 597 286 q 489 415 510 415 q 488 417 489 415 q 318 544 414 508 l 321 544 q 360 543 332 543 l 438 543 q 607 836 607 611 l 607 858 q 507 1029 607 958 q 478 1065 500 1039 q 244 1147 404 1147 q 114 1128 150 1147 q 26 1021 74 1106 q -25 906 1 976 q -29 857 -29 882 q 69 668 -29 731 q 168 583 103 614 l 171 581 q 189 568 172 579 q 222 558 190 567 l 211 558 q 200 557 204 557 q 42 471 83 535 q 25 421 25 446 q 32 393 25 401 l 31 397 q 35 386 35 389 l 35 383 q -4 107 -4 228 q 40 -144 -4 3 q 150 -282 99 -257 q 225 -354 183 -335 q 329 -371 263 -371 q 390 -368 360 -371 l 424 -358 q 463 -347 433 -356 q 615 -175 540 -322 q 644 -14 644 -118 q 640 68 644 21 q 607 257 629 192 z "},"j":{"ha":1111,"x_min":-28,"x_max":1039,"o":"m 942 228 q 924 81 942 182 q 886 -29 914 26 q 842 -118 876 -56 q 596 -260 768 -208 q 464 -268 581 -264 q 332 -250 374 -271 q 147 -185 226 -228 q 17 -49 40 -128 q 1 124 13 -35 q 8 135 4 128 q 51 231 15 185 q 133 286 86 276 q 156 285 143 285 l 186 285 q 294 260 222 285 q 401 235 365 235 q 490 378 494 235 q 490 449 489 431 q 476 538 493 483 q 451 621 453 614 q 526 671 474 667 q 664 665 614 678 q 783 599 722 650 q 888 465 860 535 q 921 401 901 442 q 942 228 942 332 m 774 840 q 728 776 767 811 q 658 731 689 740 q 579 724 646 725 q 543 718 564 718 q 397 796 460 718 q 338 954 338 868 q 515 1117 338 1099 q 665 1070 585 1124 q 768 950 746 1017 q 774 840 788 893 m 1039 158 q 1024 314 1039 238 q 1015 344 1019 336 q 983 406 1006 365 q 871 550 956 479 q 869 551 869 550 q 801 619 851 572 q 765 647 782 633 q 815 686 792 663 l 814 686 q 876 815 876 743 q 767 1010 876 926 q 678 1093 733 1057 q 529 1144 600 1144 l 513 1144 q 310 954 310 1122 q 378 775 310 860 q 432 725 401 744 q 469 681 436 717 q 422 625 440 663 q 463 457 463 504 l 463 449 q 461 435 461 442 l 461 400 q 463 375 461 389 q 458 311 463 336 l 458 313 q 401 263 447 263 q 306 286 379 263 l 307 286 q 186 313 233 313 l 153 313 q 131 314 140 313 q 33 251 75 301 q -18 143 -10 201 q -26 122 -28 133 l -17 -4 q -11 -56 -14 -49 q 83 -178 13 -128 q 393 -346 172 -311 q 517 -365 429 -365 l 533 -365 q 672 -356 640 -365 q 931 -210 857 -300 q 1021 7 1007 -82 l 1021 6 q 1039 158 1039 99 z "},"k":{"ha":1283,"x_min":-26,"x_max":1239,"o":"m 1094 -76 q 1078 -90 1094 -76 q 1040 -117 1063 -104 q 926 -139 986 -147 q 747 -53 843 -117 q 589 53 706 -25 q 540 68 565 68 q 499 57 519 68 q 451 -12 453 33 l 449 -96 q 429 -164 443 -119 q 382 -233 410 -211 q 282 -269 349 -246 q 250 -274 264 -274 q 179 -249 214 -274 q 78 -100 104 -194 q 38 189 38 44 q 39 246 38 219 q 39 306 40 272 q 33 378 38 338 l 24 471 q 18 511 21 497 q 1 894 -1 818 q 28 975 3 940 q 149 1099 61 1024 q 192 1115 167 1114 q 336 1025 300 1118 q 371 836 338 1022 q 458 693 392 719 q 469 692 463 692 q 533 733 497 692 q 579 786 546 747 q 696 899 617 819 q 786 953 732 935 q 875 971 797 957 q 943 981 938 982 q 1044 917 990 967 q 1063 864 1047 914 q 1081 813 1069 849 q 1042 693 1085 763 q 954 579 1019 657 q 869 464 889 501 q 857 406 857 440 q 868 365 857 376 q 1017 253 936 315 q 1106 142 1069 213 q 1142 6 1142 71 q 1129 -42 1142 -25 q 1094 -76 1125 -47 m 1239 -64 q 1206 69 1239 -12 q 1161 146 1189 111 l 1161 144 q 1103 206 1140 175 q 1094 211 1097 208 l 1093 213 q 1092 215 1093 214 l 1092 214 q 1004 297 1072 243 q 974 321 993 304 q 954 333 971 322 l 954 336 q 964 381 954 365 q 1039 485 982 419 q 1135 610 1076 529 l 1135 608 q 1178 733 1178 676 l 1178 747 q 1157 804 1172 767 l 1158 803 l 1157 803 l 1157 804 q 1133 867 1150 831 q 1076 911 1107 890 q 1064 936 1071 926 q 947 1008 1003 992 l 940 1008 q 869 999 915 1008 l 871 999 q 776 979 839 993 q 646 892 717 957 q 535 778 590 835 q 513 751 529 771 l 494 733 q 481 722 488 726 q 468 772 472 747 q 461 813 467 781 l 442 921 q 431 967 435 956 l 432 965 q 353 1056 407 1031 q 200 1143 308 1143 l 192 1143 q 131 1119 157 1143 l 64 1058 q 4 990 32 1029 l 6 992 q -26 894 -26 950 l -26 876 q -10 510 -26 796 q 6 374 -7 454 l 6 375 q 11 272 11 311 l 11 247 q 10 217 10 232 l 10 188 q 51 -108 10 42 q 163 -271 79 -210 l 165 -274 q 319 -371 233 -371 q 388 -357 350 -371 q 453 -332 406 -350 l 465 -328 q 546 -171 521 -283 q 547 -147 546 -162 l 547 -104 q 581 -37 547 -53 q 608 -29 594 -29 q 644 -40 625 -29 l 643 -40 l 801 -146 q 997 -237 900 -211 l 1021 -237 q 1124 -210 1074 -237 l 1124 -211 q 1181 -167 1139 -203 q 1208 -143 1188 -161 q 1239 -64 1239 -117 z "},"l":{"ha":1065,"x_min":-25,"x_max":1021,"o":"m 908 183 q 924 82 924 129 q 897 -54 924 18 q 449 -268 819 -268 q 339 -264 399 -268 q 49 -133 121 -249 q 29 -53 47 -124 q 3 214 0 65 q 24 440 4 300 l 47 613 q 64 800 56 675 l 75 972 q 96 1042 82 979 q 104 1043 100 1043 q 118 1038 113 1043 q 290 1119 185 1119 q 456 1044 389 1119 q 524 840 504 990 q 528 788 528 808 q 507 581 528 753 l 501 535 q 514 414 497 501 q 517 378 513 403 q 542 340 536 347 q 581 319 557 324 q 628 321 607 321 q 692 317 642 321 q 797 283 738 308 q 864 232 821 274 q 908 183 892 206 m 1000 131 q 951 183 978 160 l 953 182 q 883 251 918 217 q 808 308 838 296 q 697 344 749 335 q 611 347 647 347 l 611 349 q 599 454 599 419 l 599 465 q 625 718 625 640 q 621 775 625 750 l 621 774 q 546 993 603 931 q 493 1039 519 1022 q 408 1118 465 1089 q 290 1147 350 1147 q 111 1071 182 1147 q 104 1072 108 1072 q 71 1061 93 1072 q 49 985 54 990 l 29 706 q 28 681 29 696 l 28 676 q -7 446 17 600 q -25 214 -25 321 l -25 196 q 1 -60 -25 64 q 22 -139 7 -85 q 28 -151 25 -150 l 25 -149 q 99 -225 56 -197 q 407 -361 179 -346 q 518 -365 469 -365 q 993 -133 908 -365 q 1021 13 1021 -57 q 1004 121 1021 63 l 1000 131 z "},"m":{"ha":1735,"x_min":-28,"x_max":1658,"o":"m 1561 117 q 1431 -156 1568 -103 q 1304 -182 1376 -176 q 1200 -182 1219 -189 q 1160 -150 1186 -179 q 1131 -106 1135 -121 q 1088 13 1115 -74 q 1035 189 1075 49 q 1010 221 1024 214 q 979 217 992 229 q 938 154 946 182 q 889 17 908 57 q 794 -117 853 -58 q 768 -126 785 -126 q 668 -76 732 -126 q 582 4 618 -37 q 467 113 492 108 q 432 49 432 94 q 451 -44 432 42 q 460 -118 460 -114 q 433 -204 460 -168 q 368 -240 421 -221 q 238 -269 288 -269 q 118 -224 172 -269 q 42 -118 69 -183 q 4 76 4 -31 q 19 200 4 147 q 22 239 24 215 l 19 281 q 21 304 21 292 l 21 331 q 13 476 21 374 q 3 621 7 546 q 0 697 0 672 q 99 989 0 894 q 160 1014 108 999 q 175 1026 164 1018 q 238 1032 194 1036 q 394 932 317 1025 q 531 771 432 888 q 582 704 557 738 q 646 654 617 663 q 710 679 668 647 q 764 729 742 703 q 869 860 818 792 q 919 929 886 883 q 976 986 951 971 q 1079 1065 1006 1014 q 1146 1097 1122 1088 q 1217 1117 1192 1117 q 1414 1015 1335 1119 q 1461 901 1429 996 q 1524 606 1503 778 q 1556 308 1549 388 q 1557 258 1556 299 l 1561 117 m 1658 47 q 1654 190 1658 36 l 1653 242 q 1638 390 1653 258 l 1621 539 q 1557 840 1603 706 q 1506 963 1525 935 q 1439 1026 1481 999 q 1436 1032 1436 1029 q 1221 1144 1347 1144 l 1215 1144 q 1133 1122 1189 1144 q 1065 1090 1119 1117 q 957 1007 990 1036 q 847 875 918 981 l 847 876 l 788 799 q 742 744 764 768 q 688 697 731 728 q 654 681 664 681 l 657 679 l 654 679 q 621 719 646 692 l 619 721 q 454 911 536 821 q 424 938 442 924 q 415 949 421 940 q 240 1060 321 1054 l 242 1060 q 228 1061 235 1061 l 214 1061 q 158 1049 186 1061 l 149 1039 l 151 1040 q 150 1039 150 1040 l 149 1039 q 79 1008 122 1031 q -28 697 -28 906 q -10 403 -28 692 q -7 331 -7 358 l -7 306 q -8 283 -7 294 l -8 269 q -7 254 -8 264 q -6 239 -6 244 l -6 225 q -7 215 -6 222 l -7 207 q -24 76 -24 149 q 119 -260 -24 -162 q 235 -354 167 -326 q 307 -367 265 -367 q 447 -336 364 -367 q 526 -289 513 -312 l 525 -290 q 557 -187 557 -250 q 547 -106 557 -157 q 536 -62 546 -101 q 529 -21 529 -33 q 539 11 529 0 q 633 -87 575 -33 q 794 -211 728 -193 l 793 -211 q 843 -219 815 -219 q 883 -206 869 -219 q 983 -65 943 -146 q 1033 76 1006 -22 l 1033 75 q 1039 88 1036 83 q 1104 -117 1061 -7 q 1142 -171 1113 -136 q 1185 -207 1153 -183 q 1239 -267 1200 -228 q 1281 -282 1258 -282 l 1338 -282 q 1510 -251 1429 -282 q 1658 29 1658 -194 l 1658 47 z "},"n":{"ha":1636,"x_min":-26,"x_max":1568,"o":"m 1471 239 q 1439 46 1471 142 q 1369 -47 1421 -7 q 1322 -82 1336 -74 q 1269 -106 1292 -101 q 1138 -104 1200 -118 q 882 10 1064 -87 l 736 115 q 621 175 664 167 q 579 149 596 179 q 565 97 565 124 l 565 79 q 571 0 565 44 l 576 -44 q 578 -74 578 -56 q 447 -242 578 -196 q 336 -269 383 -264 q 310 -265 328 -269 q 283 -261 292 -261 q 176 -233 244 -261 q 153 -214 169 -226 q 1 11 25 -137 q 1 181 3 72 q 6 417 0 283 l 15 653 q 19 742 17 676 q 57 872 31 786 q 135 992 85 944 q 265 1019 161 1017 q 331 1007 274 1019 q 513 892 431 985 q 654 732 549 850 q 819 651 728 651 q 865 674 835 651 q 906 793 876 682 q 1000 1022 953 975 q 1101 1087 1033 1056 q 1211 1115 1168 1118 q 1354 1028 1289 1111 q 1428 869 1408 956 q 1449 711 1436 831 l 1471 496 l 1471 239 m 1568 167 l 1568 429 q 1547 625 1561 472 l 1546 644 q 1521 819 1536 760 q 1379 1038 1483 965 q 1374 1046 1378 1040 q 1214 1143 1297 1143 l 1207 1143 q 1088 1110 1160 1143 q 981 1042 1015 1076 q 879 800 928 989 q 847 694 853 700 l 850 696 q 819 679 825 679 q 711 718 764 679 q 532 910 699 731 q 336 1035 439 1010 l 338 1033 q 265 1047 278 1047 q 115 1011 151 1044 q 31 882 60 960 l 32 883 q -8 742 26 871 q -12 669 -12 697 l -12 653 q -22 418 -12 639 q -26 231 -26 324 l -26 131 q -25 101 -26 135 q -25 81 -25 101 q -26 76 -25 89 q -26 43 -26 64 l -26 7 q 103 -214 -7 -117 q 208 -307 129 -258 l 206 -306 q 231 -326 222 -318 q 353 -358 294 -358 q 381 -362 363 -358 q 408 -367 399 -367 q 526 -337 464 -361 l 525 -337 q 675 -143 675 -290 q 668 -67 675 -131 q 663 10 663 -15 l 663 26 q 664 44 663 35 q 685 78 672 78 l 686 78 q 789 24 732 68 q 935 -83 838 -15 q 1183 -196 1046 -150 q 1271 -210 1225 -210 q 1343 -203 1292 -210 q 1411 -171 1374 -199 q 1456 -139 1422 -162 q 1526 -54 1504 -103 q 1554 54 1542 -22 q 1568 167 1568 126 z "},"o":{"ha":1421,"x_min":-26,"x_max":1350,"o":"m 838 407 q 818 501 843 436 q 782 576 797 558 q 653 636 733 636 q 539 619 614 636 q 418 488 472 596 q 404 408 404 460 q 514 229 404 264 q 625 211 544 219 q 760 277 696 217 q 838 407 825 338 m 1242 576 l 1250 433 q 1253 368 1253 386 q 1215 111 1253 224 q 1211 68 1215 94 q 783 -253 1125 -150 q 638 -272 719 -272 q 449 -244 540 -272 q 244 -160 315 -204 q 64 57 138 -93 q 1 306 -1 190 q 74 746 6 478 q 121 824 79 769 q 179 904 169 888 q 492 1117 286 1093 q 692 1113 514 1119 q 886 1058 807 1108 q 904 1054 893 1056 l 928 1049 q 1118 881 1018 1028 l 1131 868 q 1144 850 1140 858 q 1215 644 1183 775 q 1242 576 1226 625 m 1338 515 q 1310 585 1325 557 q 1242 789 1276 719 q 1211 828 1239 794 q 1156 896 1183 861 q 1094 958 1119 940 q 935 1075 994 1060 l 918 1079 q 894 1086 907 1082 q 710 1140 821 1129 q 514 1144 667 1144 l 489 1144 q 154 918 267 1117 q 97 838 136 886 l 99 839 q 47 751 56 786 l 47 753 q -26 306 -26 461 l -26 299 q 36 49 -26 185 q 190 -156 101 -94 q 408 -307 261 -249 q 510 -340 438 -318 q 707 -369 606 -369 q 861 -349 792 -369 q 1308 -8 1217 -242 q 1313 36 1313 14 q 1350 299 1350 153 q 1339 508 1350 386 l 1338 515 m 625 239 l 625 239 q 522 256 550 247 q 510 258 518 256 q 501 339 501 288 q 513 406 501 385 q 614 522 563 503 q 688 536 663 533 l 694 536 q 722 539 711 539 q 776 529 747 539 q 792 492 781 519 q 810 417 810 443 l 810 413 q 742 299 799 353 q 625 239 685 244 m 618 524 l 614 522 q 618 524 617 522 z "},"p":{"ha":1233,"x_min":-26,"x_max":1203,"o":"m 579 617 q 601 710 601 651 q 524 800 601 807 q 458 758 483 797 l 446 728 q 424 671 424 674 q 452 618 424 643 q 508 593 481 593 q 579 617 513 593 m 1101 808 q 1106 738 1106 772 q 1010 465 1106 575 q 840 378 976 426 q 685 347 765 351 l 589 343 q 504 253 504 339 q 522 126 504 243 q 544 46 525 119 q 547 -1 547 28 q 544 -68 547 -29 q 529 -129 540 -82 q 490 -181 525 -147 q 292 -274 418 -274 q 149 -237 217 -274 q 47 -135 75 -199 q 28 -33 43 -126 q 24 4 26 -26 l 18 56 q 15 94 18 56 l 4 251 q 1 296 1 290 q 7 414 1 346 l 17 532 q 544 1115 63 1093 q 674 1107 597 1106 q 935 1032 806 1110 q 1101 808 1086 940 m 1199 742 q 1074 947 1185 860 q 949 1056 1026 1008 q 692 1135 818 1135 l 674 1135 q 547 1143 592 1135 q -11 533 22 1121 q -24 350 -17 442 l -24 351 q -26 311 -26 326 l -26 296 q -19 178 -26 275 l -14 100 q 13 -111 -10 35 q 22 -147 17 -135 l 22 -146 q 108 -246 49 -204 q 361 -371 197 -371 q 582 -267 500 -371 l 579 -271 q 626 -204 621 -232 l 625 -206 l 629 -189 q 642 -139 633 -176 q 644 -71 644 -100 q 642 -24 644 -37 q 618 65 629 40 l 601 183 q 615 229 601 217 q 663 246 628 242 l 660 246 l 756 250 q 919 282 842 254 q 1100 378 1061 333 q 1203 668 1203 496 q 1199 742 1203 706 m 550 635 l 533 629 q 553 676 544 651 q 574 696 561 689 q 560 639 572 661 q 550 635 554 636 m 547 635 l 551 636 q 547 635 549 635 z "},"q":{"ha":1157,"x_min":-24,"x_max":1101,"o":"m 506 738 q 489 803 506 775 q 435 838 469 838 q 371 819 417 838 q 335 794 354 808 q 313 744 333 792 q 308 725 308 738 q 337 656 308 693 q 396 619 365 619 q 408 622 400 619 q 454 644 424 629 q 506 738 506 676 m 1004 157 q 960 56 1004 100 q 858 1 917 11 q 788 -15 799 -10 q 736 -79 742 -36 q 715 -226 736 -183 q 639 -265 706 -247 q 597 -271 618 -271 q 482 -218 538 -271 q 447 -118 447 -185 l 447 -93 q 410 6 447 -22 q 322 17 404 11 q 264 46 293 19 q 235 101 235 72 q 256 162 235 125 q 299 214 278 199 q 364 242 306 219 q 426 278 407 258 q 431 296 431 282 q 394 376 431 339 q 350 401 369 401 q 319 406 339 401 q 288 411 299 411 l 274 410 q 194 406 218 404 q 167 408 171 407 q 6 556 42 444 q 4 600 3 565 q 10 685 7 660 q 50 824 15 735 q 83 878 64 840 q 183 1011 106 944 q 340 1085 226 1047 q 478 1110 363 1092 q 514 1115 488 1111 q 711 1078 642 1118 q 722 1057 713 1075 q 790 842 796 969 q 760 476 783 704 q 749 433 756 471 q 743 382 743 394 q 747 356 743 371 q 794 297 761 306 q 833 296 819 297 l 889 290 q 1004 157 1004 265 m 1085 157 q 1011 233 1060 208 q 897 318 978 300 l 868 321 q 840 324 857 322 q 847 360 842 336 l 846 357 l 851 374 l 854 388 q 856 394 854 390 l 857 399 q 878 619 871 522 q 888 771 888 753 l 888 792 q 813 1006 888 915 q 804 1026 811 1007 q 765 1044 788 1035 q 743 1075 754 1061 q 735 1096 742 1076 q 526 1143 651 1143 l 511 1143 q 394 1128 472 1138 q 332 1111 374 1125 q 244 1079 265 1089 q 165 1032 193 1056 q 57 886 82 960 l 57 888 q 25 838 39 851 q 10 796 19 824 l 10 797 l 1 776 q -22 626 -15 735 q -24 578 -24 604 l -24 560 q -21 547 -24 556 q 68 421 -1 490 q 78 414 72 417 q 229 313 131 342 q 272 307 249 307 l 288 307 q 338 313 304 308 l 347 314 l 358 314 q 394 307 371 313 q 401 306 397 306 l 404 296 l 404 294 q 311 250 390 282 q 240 188 274 235 q 207 101 207 142 q 244 25 207 61 q 283 -1 264 7 q 314 -44 292 -25 q 389 -81 353 -79 q 419 -83 404 -81 l 419 -118 q 504 -271 419 -219 q 532 -307 514 -289 q 667 -368 594 -368 q 717 -361 693 -368 l 715 -361 q 808 -308 793 -339 q 829 -214 829 -265 l 829 -199 q 831 -183 829 -192 q 868 -110 831 -126 l 867 -110 q 931 -97 888 -106 q 1050 -31 999 -83 q 1101 88 1101 21 q 1085 158 1101 122 l 1085 157 m 440 668 l 442 669 l 417 657 l 418 658 q 406 651 410 653 l 406 656 q 428 708 406 657 q 478 733 439 718 q 440 668 474 689 z "},"r":{"ha":1146,"x_min":-28,"x_max":1115,"o":"m 1007 671 q 926 581 999 640 q 863 549 881 557 q 796 529 822 529 q 682 568 765 528 q 625 599 664 581 q 547 611 588 611 q 453 588 490 611 q 382 463 382 543 q 392 406 382 433 q 444 310 399 386 l 453 296 q 531 146 510 200 q 549 68 542 117 l 556 21 q 563 -33 563 -26 q 492 -179 563 -121 q 256 -271 381 -271 q 138 -240 190 -271 q 75 -161 104 -221 q 72 -118 71 -153 q 72 -69 74 -86 q 43 69 57 -21 q 36 81 40 74 q 11 369 25 199 q 10 444 8 403 q 6 462 10 450 q 1 479 1 474 q 0 499 0 490 l 0 518 q 8 590 0 543 q 18 660 17 638 q 36 775 21 718 q 54 808 42 786 q 199 982 92 904 q 365 1069 279 1040 q 615 1117 449 1086 q 664 1110 619 1117 l 717 1101 l 771 1097 q 832 1081 806 1094 q 942 957 876 1058 l 972 922 q 993 860 978 903 q 1018 742 1018 790 q 1007 671 1018 711 m 1103 593 q 1115 672 1115 635 q 1089 800 1115 728 q 1067 864 1079 826 q 1061 874 1064 871 l 1058 876 q 1033 904 1044 893 q 925 1028 972 994 q 843 1106 879 1086 q 776 1125 808 1119 l 722 1129 q 657 1140 708 1132 l 640 1143 q 611 1144 632 1144 q 499 1122 535 1133 l 501 1124 q 361 1097 432 1108 q 182 1004 271 1068 q 28 818 67 921 l 29 821 q 10 783 22 808 q -10 660 -8 714 q -18 603 -11 653 q -28 518 -28 533 l -28 497 q -19 450 -28 492 q -18 444 -18 447 l -18 428 q -10 286 -18 371 l 4 144 q 8 69 6 122 q 15 61 13 65 l 15 61 q 19 54 17 58 l 15 58 q 44 -74 31 -29 q 46 -81 44 -76 l 46 -89 q 44 -114 46 -97 q 43 -139 43 -131 q 50 -174 43 -158 q 133 -269 78 -232 q 325 -368 190 -368 q 579 -269 460 -368 q 660 -103 660 -203 q 654 -65 660 -83 l 654 -57 q 626 85 649 -8 q 560 218 606 139 q 486 347 524 282 l 488 346 q 479 393 479 371 q 538 494 479 458 l 536 494 q 617 514 568 514 q 682 503 649 514 q 733 476 717 488 q 863 432 831 432 l 865 432 q 949 457 899 432 q 1010 486 965 465 q 1103 594 1092 554 l 1103 593 m 15 803 q 10 783 10 803 q 15 803 13 794 m 85 733 q 79 714 82 725 q 85 733 79 733 m 85 -10 m 15 61 m 683 503 z "},"s":{"ha":1074,"x_min":-26,"x_max":993,"o":"m 896 860 q 858 789 893 831 q 794 742 822 747 q 688 725 710 725 q 626 740 668 725 q 564 756 585 756 q 522 742 540 756 q 504 706 504 728 q 538 631 504 674 q 601 581 571 589 q 683 546 661 565 q 890 192 890 369 q 875 64 890 125 q 853 18 865 49 q 749 -128 815 -71 q 592 -224 707 -164 q 408 -268 524 -258 q 339 -271 374 -271 q 143 -231 224 -271 q 18 -82 44 -182 q 1 -46 10 -71 q 88 165 -6 53 q 103 169 96 168 q 181 189 125 189 q 231 186 203 189 q 282 164 260 171 q 393 154 340 146 q 465 217 410 157 q 347 324 465 296 q 265 343 325 328 q 125 428 189 364 q 93 464 103 450 q 64 561 74 492 q 57 678 53 642 q 93 818 65 749 q 196 968 113 867 q 239 1022 210 993 q 407 1086 310 1064 q 585 1117 454 1097 q 642 1113 564 1115 q 804 1074 736 1110 q 875 988 831 1060 l 889 932 q 896 892 894 910 q 896 860 897 874 m 993 786 l 993 803 q 969 929 993 835 q 882 1031 908 1031 q 878 1032 881 1031 q 817 1099 843 1086 q 643 1140 740 1136 q 618 1129 625 1142 l 610 1115 l 601 1096 q 585 1089 594 1089 l 581 1144 q 400 1113 460 1126 q 222 1044 299 1089 q 171 982 185 1007 l 175 986 q 67 828 89 883 l 67 829 q 29 681 38 754 l 29 683 q 28 669 28 678 l 28 654 q 71 447 28 508 q 140 376 97 410 q 353 240 218 271 q 374 235 365 238 l 411 226 l 410 228 q 432 221 419 224 q 360 179 404 179 q 290 190 331 179 l 293 189 q 261 203 275 196 l 239 214 q 182 217 211 217 q 90 194 124 217 q 71 189 85 192 q -26 -33 -26 71 l -26 -51 q -6 -96 -21 -68 q 97 -235 22 -192 q 321 -364 181 -347 q 404 -368 356 -368 q 479 -365 449 -368 q 674 -318 601 -354 q 836 -218 783 -262 q 947 -62 910 -156 l 947 -64 l 951 -56 q 969 -18 956 -46 q 988 122 988 57 q 924 324 988 221 l 924 322 q 788 483 899 364 q 701 567 740 535 q 608 606 683 585 q 601 636 601 619 q 617 656 601 649 q 633 658 625 658 q 694 643 651 658 q 757 628 736 628 q 869 644 788 628 q 953 708 910 653 q 993 786 986 751 z "},"t":{"ha":1188,"x_min":-29,"x_max":1136,"o":"m 1035 39 q 1026 -26 1032 13 q 1001 -107 1019 -47 q 957 -165 996 -126 q 896 -215 918 -204 q 718 -268 814 -258 q 560 -260 651 -275 q 371 -204 443 -240 q 333 -169 350 -183 q 231 67 231 -83 q 233 110 231 82 q 236 154 236 139 q 196 224 236 208 q 110 238 189 228 q 3 353 18 249 q 1 450 -6 410 q 18 476 10 460 q 208 585 71 581 q 221 656 221 615 q 211 741 221 685 q 201 826 201 797 q 210 932 201 872 q 217 947 213 939 l 226 967 q 276 1063 238 1018 q 363 1117 314 1108 q 469 1110 414 1125 q 560 1029 503 1100 q 588 963 575 1010 q 601 886 601 915 q 589 743 601 788 q 589 668 576 699 q 633 633 600 642 q 693 625 647 631 q 811 503 811 613 q 718 333 811 381 q 622 289 697 322 q 594 251 599 274 q 653 179 589 218 q 675 172 664 172 q 751 246 708 172 q 772 279 765 269 q 849 328 793 310 q 869 332 857 332 q 1001 247 956 332 q 1039 85 1039 179 q 1035 39 1039 57 m 1132 -36 q 1136 15 1136 -19 q 1021 268 1136 193 q 897 357 971 346 q 908 433 908 401 q 826 568 908 533 q 696 653 793 643 q 682 654 686 653 q 685 667 682 658 q 699 817 699 713 q 683 901 699 853 l 683 900 q 651 976 669 953 q 578 1051 610 1031 q 436 1146 508 1139 q 397 1147 422 1147 q 270 1097 324 1147 q 199 972 217 1047 l 201 978 q 182 940 194 965 q 174 825 174 882 q 183 736 174 774 l 182 738 q 193 656 193 686 q 188 611 193 633 q -7 489 49 600 l -6 490 q -25 461 -17 471 q -29 411 -29 436 q 61 219 -29 257 q 175 140 101 147 q 207 136 201 138 l 207 124 q 206 110 206 119 q 203 67 203 82 q 315 -190 203 -97 l 326 -201 q 338 -210 329 -204 q 385 -260 360 -239 l 396 -271 q 425 -297 413 -285 q 746 -367 568 -367 l 769 -367 q 978 -310 868 -367 q 1049 -251 1004 -296 l 1047 -251 q 1110 -149 1093 -206 q 1124 -100 1114 -128 q 1132 -36 1129 -64 z "},"u":{"ha":1424,"x_min":-26,"x_max":1363,"o":"m 1264 589 q 1265 518 1265 553 q 1061 -97 1265 133 q 978 -165 1054 -106 q 708 -271 854 -262 q 572 -260 681 -272 q 218 -142 322 -231 q 35 72 76 -22 l 26 114 q 1 294 1 178 q 25 511 1 357 q 54 746 51 683 q 75 897 58 840 q 174 1055 103 993 q 342 1117 246 1117 q 438 1101 403 1117 q 507 1035 478 1083 l 525 904 q 507 763 525 839 l 469 600 q 449 435 453 517 q 467 257 443 324 q 588 181 481 219 q 631 179 603 175 q 674 193 657 183 q 747 319 714 222 q 782 464 774 396 l 782 619 q 779 664 782 601 q 775 707 778 701 q 747 736 750 715 q 744 888 736 826 q 771 926 756 900 q 821 982 794 968 q 944 1013 878 1013 q 1111 965 1033 1013 q 1222 836 1194 915 q 1264 589 1258 733 m 1318 776 q 1221 901 1292 850 q 1128 986 1188 950 l 1129 986 q 944 1040 1043 1040 q 807 1006 868 1040 l 808 1007 q 733 918 781 992 q 718 899 725 908 q 714 829 714 867 q 719 733 714 800 q 750 686 722 703 l 750 675 q 752 653 750 668 q 754 631 754 638 l 754 467 q 701 285 740 360 l 701 286 q 657 215 667 222 l 660 217 q 625 206 646 210 l 626 207 q 615 206 619 206 l 607 206 q 597 207 600 206 q 554 224 575 214 q 544 324 544 272 l 544 342 q 554 456 544 375 q 569 549 560 501 l 568 547 q 601 682 581 592 l 600 681 q 622 835 622 771 q 610 925 622 881 q 604 961 608 928 l 604 972 q 526 1053 571 1028 q 342 1144 468 1144 q 132 1051 215 1144 q 49 904 68 981 l 49 906 q 26 747 31 838 q -3 515 25 694 q -26 294 -26 360 q 0 104 -26 171 l 0 108 q 7 67 3 94 q 169 -136 40 -7 q 269 -232 233 -200 q 639 -357 376 -326 q 769 -368 735 -368 l 778 -368 q 1064 -257 925 -368 l 1126 -207 q 1153 -183 1150 -187 l 1151 -185 q 1363 449 1363 53 q 1361 519 1363 481 q 1318 776 1356 672 z "},"v":{"ha":1603,"x_min":-26,"x_max":1543,"o":"m 1442 979 q 1442 850 1450 893 q 1388 656 1425 767 q 1319 465 1353 561 q 1233 268 1310 438 q 1164 153 1215 243 q 1006 -97 1104 14 q 769 -268 893 -226 q 639 -268 713 -287 q 488 -160 575 -251 q 290 85 368 -35 q 251 146 281 100 q 113 447 181 314 q 50 575 65 540 q 1 790 -3 696 q 87 946 6 875 q 254 1015 168 1017 q 383 946 315 1014 q 472 822 439 890 q 594 644 483 800 q 636 603 606 628 q 682 576 667 578 q 747 608 711 574 q 793 669 778 638 q 864 810 839 764 q 949 943 907 889 q 1201 1117 1060 1089 q 1249 1122 1229 1122 q 1426 1011 1390 1122 q 1442 979 1432 1001 m 1538 919 q 1521 951 1528 940 q 1438 1056 1497 1022 q 1249 1150 1388 1150 q 1194 1143 1218 1150 l 1196 1144 q 926 960 1046 1115 q 768 681 867 882 q 733 633 757 658 q 686 604 706 604 l 685 604 q 675 608 681 604 q 624 679 663 629 q 551 789 606 701 q 439 924 492 885 q 403 964 431 936 q 254 1043 326 1042 q 68 965 158 1044 q -26 790 -26 885 l -26 781 q 7 608 -26 694 q 78 451 32 544 l 154 297 q 229 129 181 246 q 267 69 239 113 q 581 -292 357 -72 q 701 -364 632 -342 l 700 -364 q 778 -375 731 -375 q 849 -364 817 -375 q 1093 -187 976 -319 q 1257 71 1196 -71 q 1326 183 1299 142 q 1415 388 1404 354 l 1415 386 l 1485 578 q 1539 775 1519 683 q 1543 835 1543 794 q 1539 913 1543 868 l 1538 919 z "},"w":{"ha":1739,"x_min":-26,"x_max":1676,"o":"m 1579 419 l 1550 279 q 1542 218 1547 254 q 1513 135 1533 194 l 1482 50 q 1396 -129 1442 -64 q 1129 -268 1300 -268 q 1076 -265 1099 -268 q 911 -160 1008 -257 l 857 -106 q 833 -83 838 -86 q 736 -14 781 -33 q 683 -28 713 -3 q 619 -110 663 -56 q 539 -171 582 -154 q 369 -208 438 -208 q 122 -94 221 -208 q 49 83 56 -17 q 36 104 44 92 l 26 271 q 13 504 24 331 q 1 675 10 549 q 1 725 0 701 q 4 729 3 726 l 8 735 q 264 1117 6 1117 q 376 1090 326 1117 q 447 1005 435 1060 q 460 850 460 950 l 460 519 q 463 504 460 535 q 465 457 465 474 q 469 394 467 425 q 542 328 478 324 q 578 375 560 329 q 601 468 578 388 q 631 563 619 528 q 671 653 646 608 q 713 689 682 674 q 769 704 743 704 q 793 699 783 704 q 860 635 828 685 q 922 540 885 603 q 972 438 942 483 q 1056 372 1014 374 q 1097 425 1076 399 q 1117 479 1104 433 q 1142 676 1128 518 q 1271 983 1165 938 q 1392 1008 1328 1008 q 1468 989 1442 1008 q 1514 923 1486 976 q 1547 844 1542 869 q 1550 810 1546 835 q 1579 669 1565 768 l 1579 419 m 1676 350 l 1676 611 q 1656 674 1658 629 q 1649 721 1654 686 q 1644 768 1644 751 l 1644 776 q 1553 942 1607 904 q 1528 956 1539 951 q 1483 1011 1504 997 q 1392 1036 1447 1036 q 1260 1008 1322 1036 l 1261 1010 q 1200 960 1231 997 l 1201 960 q 1165 906 1176 929 q 1114 679 1126 822 q 1090 486 1107 589 q 1074 440 1085 453 l 1075 442 q 1050 408 1060 421 q 1032 443 1039 425 l 1018 479 q 951 583 972 556 l 953 581 q 885 649 919 629 q 882 653 882 651 l 883 650 q 804 724 847 706 l 807 722 q 769 732 789 732 q 700 713 738 732 q 647 667 663 693 q 575 474 611 603 q 558 418 569 453 l 558 435 q 557 451 557 446 l 557 629 q 556 647 556 636 l 556 731 q 557 747 557 740 l 557 803 q 544 939 557 896 q 461 1043 525 1007 q 264 1144 413 1144 q -19 746 -19 1144 l -19 743 l -26 736 l -26 700 q -15 501 -26 607 l -15 503 l 8 94 l 19 78 q 24 71 22 72 l 21 82 q 101 -112 29 -31 q 158 -168 107 -118 q 281 -271 246 -251 q 439 -306 344 -306 q 540 -290 497 -306 l 539 -290 l 547 -287 q 707 -199 643 -267 q 771 -118 750 -143 q 790 -108 785 -108 q 789 -106 793 -108 q 961 -249 839 -126 q 1143 -362 1065 -353 l 1150 -362 q 1199 -365 1172 -365 q 1488 -214 1385 -365 q 1578 -29 1536 -142 q 1639 142 1592 10 l 1647 204 q 1672 325 1658 244 q 1675 343 1672 335 l 1676 350 m 560 417 q 558 415 560 415 l 558 415 l 560 417 z "},"x":{"ha":1503,"x_min":-25,"x_max":1451,"o":"m 1331 235 q 1354 147 1354 194 q 1301 -10 1354 71 q 1176 -114 1247 -94 q 1139 -119 1164 -119 q 919 -42 1031 -119 q 761 74 797 81 q 667 -10 711 64 q 615 -77 651 -35 q 565 -142 579 -119 q 506 -214 542 -178 q 431 -264 461 -258 q 383 -269 401 -269 q 294 -249 338 -269 q 113 -108 190 -212 q 90 -28 90 -78 q 119 96 90 33 q 181 208 125 110 q 243 326 217 274 q 249 353 249 338 q 163 474 249 397 q 40 597 57 568 q 3 732 3 664 q 14 836 3 799 q 70 926 29 882 q 153 968 111 969 q 197 976 168 975 q 308 929 218 974 q 425 829 356 906 q 535 726 497 749 q 676 801 621 765 q 756 896 714 826 q 815 993 810 986 q 942 1103 871 1058 q 1004 1117 961 1115 q 1093 1063 1051 1119 q 1146 971 1104 1049 q 1199 799 1199 874 q 1179 678 1199 740 q 1135 564 1169 647 q 1119 506 1121 532 q 1146 424 1115 447 q 1331 235 1281 319 m 1304 315 q 1218 399 1267 354 q 1217 422 1217 406 l 1217 436 q 1229 483 1221 464 l 1239 506 l 1238 504 q 1253 536 1243 514 l 1253 535 q 1296 729 1296 639 q 1240 915 1296 811 q 1194 997 1204 983 q 1128 1061 1165 1039 q 1115 1079 1125 1065 q 1007 1144 1067 1144 l 1003 1144 q 928 1126 958 1144 q 794 1011 850 1079 q 732 910 781 994 q 661 825 696 847 q 536 757 614 796 q 447 847 506 789 q 381 911 421 874 q 321 954 344 942 q 199 1004 232 1000 q 147 996 167 1003 q 46 942 97 993 q -15 840 -6 890 q -25 732 -25 789 q 15 583 -25 660 q 101 490 25 564 l 200 394 q 221 353 221 369 q 217 335 221 343 l 217 336 q 156 222 190 283 l 100 122 q 63 -28 63 54 q 90 -125 63 -87 q 174 -212 133 -183 q 356 -344 269 -312 l 351 -343 q 453 -367 403 -367 l 460 -367 q 592 -306 531 -367 l 592 -307 q 658 -226 614 -285 q 760 -93 688 -190 q 836 -24 801 -31 l 838 -24 q 896 -62 854 -24 q 969 -131 917 -82 q 1208 -217 1093 -217 q 1256 -208 1240 -217 q 1390 -99 1326 -186 l 1390 -100 q 1451 78 1451 -14 q 1403 210 1451 146 q 1304 315 1393 222 z "},"y":{"ha":1256,"x_min":-28,"x_max":1189,"o":"m 1090 556 q 1074 313 1093 496 q 1061 214 1068 267 q 1035 131 1054 192 q 999 11 1025 100 q 785 -211 965 -111 q 690 -239 760 -225 l 586 -260 q 489 -269 538 -269 q 324 -243 444 -269 q 225 -215 303 -239 q 199 -199 213 -204 q 98 -121 136 -172 q 60 -4 60 -69 q 129 126 60 67 q 219 175 183 174 q 346 154 263 176 q 472 133 429 132 q 482 135 472 133 q 499 135 490 135 l 575 135 q 671 190 657 146 q 660 235 676 210 q 624 269 643 261 q 561 269 621 271 q 382 253 468 257 q 333 253 364 251 q 64 407 165 258 q 6 540 19 472 q 3 617 1 560 l 6 743 l 6 911 q 17 964 8 929 q 82 1050 39 1022 q 215 1092 146 1092 q 292 1067 250 1092 q 349 1011 333 1042 q 375 875 369 968 l 383 724 q 507 583 392 583 q 606 778 613 583 q 621 1006 600 940 q 792 1119 660 1119 q 907 1093 860 1119 q 950 1031 918 1076 l 1011 938 q 1038 849 1031 908 l 1044 797 q 1047 778 1044 790 q 1049 768 1049 765 q 1079 600 1068 694 q 1090 556 1085 583 m 1186 494 q 1183 506 1186 499 l 1185 504 q 1176 535 1181 518 q 1144 704 1161 643 l 1144 714 q 1143 724 1143 721 q 1132 806 1135 792 q 1104 882 1122 854 q 994 1044 1056 958 q 963 1060 985 1050 q 925 1114 939 1093 q 792 1147 867 1147 q 732 1140 756 1147 l 733 1142 q 663 1108 701 1136 q 610 1050 624 1079 q 576 832 576 978 q 578 829 576 839 q 578 806 578 821 l 578 751 q 507 611 578 611 q 490 613 496 611 q 472 807 479 651 q 443 954 468 904 l 443 953 q 375 1021 425 990 q 374 1024 374 1021 l 374 1022 q 315 1085 358 1056 q 233 1119 272 1114 l 215 1119 q -11 969 51 1119 q -22 914 -17 956 l -22 746 q -24 710 -22 726 l -26 676 q -28 617 -28 660 q -21 533 -28 558 l -22 535 q 35 399 -11 472 q 133 289 82 325 q 225 207 176 231 q 228 205 228 206 q 232 203 229 204 l 218 203 q 111 147 174 203 q 32 -4 32 78 q 142 -200 32 -126 q 257 -294 186 -264 l 254 -292 q 281 -310 264 -297 q 342 -326 297 -315 q 386 -340 369 -333 q 558 -367 513 -367 q 764 -336 604 -367 q 867 -306 836 -322 q 1096 -64 1068 -194 l 1094 -67 q 1158 139 1122 31 q 1171 238 1161 156 q 1189 438 1189 393 l 1189 464 q 1188 489 1189 476 l 1186 494 m 571 163 l 529 163 l 608 171 q 571 163 594 165 m 1146 699 q 1144 701 1144 699 l 1146 699 z "},"z":{"ha":1271,"x_min":-25,"x_max":1204,"o":"m 1099 53 q 1071 -1 1096 49 q 844 -206 1029 -118 q 710 -239 831 -212 q 400 -271 560 -272 q 81 -200 197 -269 q 19 -101 40 -176 q 3 18 3 -43 q 19 74 3 38 q 49 129 35 110 q 156 274 94 214 q 511 613 254 368 q 522 638 521 622 q 517 664 524 654 q 461 692 497 683 q 385 703 379 703 l 371 703 q 296 696 342 703 q 221 686 226 686 q 182 683 194 683 q 32 774 76 683 q 24 835 19 799 q 89 981 32 924 q 136 1035 106 1004 q 315 1088 167 1056 q 421 1110 338 1093 q 544 1117 453 1113 q 760 1108 681 1121 q 943 1008 879 1090 q 985 885 985 956 q 961 760 985 824 q 914 635 949 728 q 846 539 890 606 q 779 442 801 472 q 753 406 772 432 q 721 336 721 360 q 722 328 721 329 q 783 299 739 306 q 858 293 785 297 q 1053 293 917 296 q 1072 282 1060 293 q 1088 264 1085 271 q 1107 147 1107 218 q 1099 53 1107 94 m 1196 -22 q 1204 78 1204 19 q 1182 206 1204 158 q 1156 235 1176 218 q 1122 251 1135 251 l 1121 251 q 1103 289 1118 263 q 1054 321 1078 315 q 1039 322 1058 321 q 996 322 1019 322 l 899 322 l 851 321 q 844 322 847 322 q 911 407 900 392 q 969 496 947 456 q 1008 551 983 514 q 1057 681 1029 604 q 1082 815 1082 749 q 974 1014 1082 932 q 965 1025 972 1015 q 764 1136 899 1115 q 543 1144 703 1146 q 481 1141 522 1144 q 417 1138 439 1138 q 310 1115 381 1132 q 121 1058 182 1101 q 68 999 86 1024 q -4 838 7 938 l -3 839 q -6 826 -6 832 l -6 818 q 8 760 -6 786 l 7 761 q 83 678 38 701 q 251 586 133 586 q 346 596 283 586 q 440 606 408 606 l 451 606 q 464 604 457 606 q 342 486 396 536 l 251 403 q 154 310 225 376 q 129 288 146 303 q 61 207 96 251 q 24 143 43 178 q -25 18 -25 54 q 3 -140 -25 -85 q 32 -185 24 -172 q 88 -235 56 -219 q 136 -293 103 -258 q 468 -368 268 -365 q 785 -336 628 -369 q 925 -300 847 -322 q 1165 -82 1118 -207 q 1175 -65 1165 -75 l 1185 -46 q 1192 -32 1188 -42 l 1196 -22 z "},"":{"ha":818,"x_min":0,"x_max":0,"o":""},"":{"ha":818,"x_min":0,"x_max":0,"o":""}}}
